<svg width="96" height="96" viewBox="0 0 96 96" fill="none" xmlns="http://www.w3.org/2000/svg">
<path d="M57.9 72V80.1C57.9 85.8 53.4 90.3 47.7 90.3C42 90.3 37.5 85.8 37.5 80.1V72" fill="#CED8EE"/>
<path d="M47.9998 91.5C41.6998 91.5 36.2998 86.4 36.2998 79.8V72C36.2998 71.1 36.8998 70.5 37.7998 70.5C38.6998 70.5 39.2998 71.1 39.2998 72V80.1C39.2998 84.9 43.1998 88.8 47.9998 88.8C52.7998 88.8 56.6998 84.9 56.6998 80.1V72C56.6998 71.1 57.2998 70.5 58.1998 70.5C59.0998 70.5 59.6998 71.1 59.6998 72V80.1C59.3998 86.4 54.2998 91.5 47.9998 91.5Z" fill="#494949"/>
<path d="M34.7994 63.9C24.5994 59.1 17.3994 48.6 17.3994 36.3C17.3994 19.5 30.8994 6 47.6994 6C64.4994 6 77.9995 19.5 77.9995 36.3C77.9995 48.6 70.7994 59.1 60.5994 63.9" fill="#FFF27D"/>
<path d="M60.8996 65.4C60.2996 65.4 59.6996 65.1 59.6996 64.5C59.3996 63.9 59.6996 63 60.2996 62.7C70.4996 57.9 76.7996 47.7 76.7996 36.6C76.7996 20.7 63.8996 7.5 47.6996 7.5C31.4996 7.5 18.5996 20.4 18.5996 36.6C18.5996 47.7 25.1996 57.9 35.0996 62.7C35.6996 63 35.9996 63.9 35.6996 64.5C35.3996 65.1 34.4996 65.4 33.8996 65.1C22.7996 60 15.5996 48.6 15.5996 36.3C15.5996 18.6 29.9996 4.5 47.3996 4.5C64.7996 4.5 79.1996 18.9 79.1996 36.3C79.1996 48.6 71.9996 60 60.8996 65.1C61.1996 65.4 60.8996 65.4 60.8996 65.4Z" fill="#494949"/>
<path d="M52.1998 72.5999H43.4998C38.6998 72.5999 34.7998 68.6999 34.7998 63.8999H60.8998C60.8998 68.6999 56.9998 72.5999 52.1998 72.5999Z" fill="#CED8EE"/>
<path d="M52.1998 74.0999H43.4998C37.7998 74.0999 33.2998 69.5999 33.2998 63.8999C33.2998 62.9999 33.8998 62.3999 34.7998 62.3999H60.8998C61.7998 62.3999 62.3998 62.9999 62.3998 63.8999C62.3998 69.5999 57.8998 74.0999 52.1998 74.0999ZM36.2998 65.3999C36.8998 68.6999 39.8998 71.0999 43.4998 71.0999H52.1998C55.7998 71.0999 58.4998 68.6999 59.3998 65.3999H36.2998Z" fill="#494949"/>
<g opacity="0.5">
<g opacity="0.5">
<path opacity="0.5" d="M47.999 65.3997C47.099 65.3997 46.499 64.7997 46.499 63.8997V58.1997C46.499 57.2997 47.099 56.6997 47.999 56.6997C48.899 56.6997 49.499 57.2997 49.499 58.1997V63.8997C49.199 64.7997 48.599 65.3997 47.999 65.3997Z" fill="#494949"/>
</g>
<g opacity="0.5">
<path opacity="0.5" d="M47.9993 59.6999C47.6993 59.6999 47.3992 59.6999 47.0992 59.3999L42.8992 55.1999C42.2992 54.5999 42.2992 53.6999 42.8992 53.0999C43.4992 52.4999 44.3993 52.4999 44.9993 53.0999L49.1992 57.2999C49.7992 57.8999 49.7992 58.7999 49.1992 59.3999C48.5992 59.3999 48.2993 59.6999 47.9993 59.6999Z" fill="#494949"/>
</g>
<g opacity="0.5">
<path opacity="0.5" d="M47.9994 59.6999C47.6994 59.6999 47.3994 59.6999 47.0994 59.3999C46.4994 58.7999 46.4994 57.8999 47.0994 57.2999L51.2994 53.0999C51.8994 52.4999 52.7994 52.4999 53.3994 53.0999C53.9994 53.6999 53.9994 54.5999 53.3994 55.1999L49.1994 59.3999C48.5994 59.3999 48.2994 59.6999 47.9994 59.6999Z" fill="#494949"/>
</g>
</g>
</svg>
