<svg width="32" height="32" viewBox="0 0 32 32" fill="none" xmlns="http://www.w3.org/2000/svg">
<path d="M22.2994 5.7998H6.69942C4.49942 5.7998 2.79942 7.4998 2.79942 9.6998C2.79942 10.1998 2.89942 10.5998 2.99942 10.9998C2.79942 11.5998 2.39941 12.1998 1.89941 12.5998H4.09941C4.79941 13.1998 5.69942 13.5998 6.69942 13.5998H22.2994C24.4994 13.5998 26.1994 11.8998 26.1994 9.6998C26.1994 7.4998 24.4994 5.7998 22.2994 5.7998Z" fill="white"/>
<path d="M22.2998 14.0999H6.69982C5.69982 14.0999 4.69982 13.7999 3.89982 13.0999H1.89982C1.69982 13.0999 1.49982 12.9999 1.39982 12.7999C1.29982 12.5999 1.39982 12.3999 1.49982 12.2999C1.89982 11.9999 2.19982 11.4999 2.39982 11.0999C2.29982 10.6999 2.19982 10.1999 2.19982 9.7999C2.19982 7.3999 4.19982 5.3999 6.59982 5.3999H22.1998C24.5998 5.3999 26.5998 7.3999 26.5998 9.7999C26.6998 12.0999 24.6998 14.0999 22.2998 14.0999ZM3.09982 12.0999H4.19982C4.29982 12.0999 4.39982 12.0999 4.49982 12.1999C5.09982 12.7999 5.89982 13.0999 6.79982 13.0999H22.3998C24.2998 13.0999 25.7998 11.5999 25.7998 9.69989C25.7998 7.79989 24.2998 6.2999 22.3998 6.2999H6.69982C4.79982 6.2999 3.29982 7.79989 3.29982 9.69989C3.29982 10.0999 3.39982 10.4999 3.49982 10.8999C3.49982 10.9999 3.49982 11.0999 3.49982 11.1999C3.39982 11.4999 3.29982 11.7999 3.09982 12.0999Z" fill="#494949"/>
<g opacity="0.5">
<path opacity="0.5" d="M22.3002 11.0999H6.7002C6.4002 11.0999 6.2002 10.8999 6.2002 10.5999C6.2002 10.2999 6.4002 10.0999 6.7002 10.0999H22.3002C22.6002 10.0999 22.8002 10.2999 22.8002 10.5999C22.8002 10.8999 22.6002 11.0999 22.3002 11.0999Z" fill="#494949"/>
</g>
<g opacity="0.5">
<path opacity="0.5" d="M12.5998 9.19995H6.7998C6.4998 9.19995 6.2998 8.99995 6.2998 8.69995C6.2998 8.39995 6.4998 8.19995 6.7998 8.19995H12.5998C12.8998 8.19995 13.0998 8.39995 13.0998 8.69995C13.0998 8.99995 12.8998 9.19995 12.5998 9.19995Z" fill="#494949"/>
</g>
<path d="M9.69981 18.5H25.2998C27.4998 18.5 29.1998 20.2 29.1998 22.4C29.1998 22.9 29.0998 23.3 28.9998 23.7C29.1998 24.3 29.5998 24.9 30.0998 25.3H27.7998C27.0998 25.9 26.1998 26.3 25.1998 26.3H9.69981C7.49981 26.3 5.7998 24.6 5.7998 22.4C5.7998 20.2 7.49981 18.5 9.69981 18.5Z" fill="#B1F1A8"/>
<path d="M25.2998 26.6999H9.69981C7.29981 26.6999 5.2998 24.6999 5.2998 22.2999C5.2998 19.8999 7.29981 17.8999 9.69981 17.8999H25.2998C27.6998 17.8999 29.6998 19.8999 29.6998 22.2999C29.6998 22.7999 29.5998 23.1999 29.4998 23.5999C29.6998 24.0999 29.9998 24.4999 30.3998 24.7999C30.5998 24.8999 30.5998 25.0999 30.4998 25.2999C30.3998 25.4999 30.1998 25.5999 29.9998 25.5999H27.9998C27.1998 26.3999 26.2998 26.6999 25.2998 26.6999ZM9.69981 18.8999C7.79981 18.8999 6.2998 20.3999 6.2998 22.2999C6.2998 24.1999 7.79981 25.6999 9.69981 25.6999H25.2998C26.0998 25.6999 26.8998 25.3999 27.5998 24.7999C27.6998 24.6999 27.7998 24.6999 27.8998 24.6999H28.9998C28.7998 24.3999 28.5998 24.0999 28.4998 23.7999C28.4998 23.6999 28.4998 23.5999 28.4998 23.4999C28.5998 23.0999 28.6998 22.6999 28.6998 22.2999C28.6998 20.3999 27.1998 18.8999 25.2998 18.8999H9.69981Z" fill="#494949"/>
<g opacity="0.5">
<path opacity="0.5" d="M25.3002 23.7998H9.7002C9.4002 23.7998 9.2002 23.5998 9.2002 23.2998C9.2002 22.9998 9.4002 22.7998 9.7002 22.7998H25.3002C25.6002 22.7998 25.8002 22.9998 25.8002 23.2998C25.8002 23.5998 25.5002 23.7998 25.3002 23.7998Z" fill="#494949"/>
</g>
<g opacity="0.5">
<path opacity="0.5" d="M25.3 21.8999H19.5C19.2 21.8999 19 21.6999 19 21.3999C19 21.0999 19.2 20.8999 19.5 20.8999H25.3C25.6 20.8999 25.8 21.0999 25.8 21.3999C25.8 21.6999 25.5 21.8999 25.3 21.8999Z" fill="#494949"/>
</g>
</svg>
