<svg width="96" height="96" viewBox="0 0 96 96" fill="none" xmlns="http://www.w3.org/2000/svg">
<path d="M65.7 27.9003C68.1 29.7003 69.6 28.8003 73.5 33.9003C68.4 32.7003 66 34.2003 66 34.2003C62.7 35.1003 62.1 41.4003 61.8 46.5003C61.8 50.4003 60.6 55.2003 57 59.4003C54 63.0003 48.3 66.0003 37.5 65.1003C36.6 72.0003 31.2 79.8003 25.8 81.6003C22.8 82.5003 19.2 82.2003 15.9 80.7003C10.8 78.3003 6 73.8003 6 68.4003C12.9 67.8003 27 61.5003 30 54.3003C4.2 49.8003 9 21.0003 13.8 15.3003C14.4 21.0003 19.5 25.5003 30.6 27.3003C30.9 27.3003 30.9 27.3003 31.2 27.3003C31.5 33.0003 41.4 33.0003 42.6 36.6003C45 36.6003 47.1 35.4003 48.3 32.4003C48.3 32.1003 48.6 31.8003 48.6 31.5003C49.2 28.5003 50.7 25.2003 53.4 24.0003C57.9 21.6003 62.7 22.5003 65.7 27.9003Z" fill="#EEF6FF"/>
<path d="M28.8002 57.6001C27.9002 57.6001 26.4002 58.8001 24.9002 59.7001C20.1002 63.9001 11.7002 67.5001 5.7002 68.4001C5.7002 69.6001 6.00018 71.1001 6.60018 72.3001C13.8002 71.4001 26.1002 64.5001 28.8002 57.6001Z" fill="white"/>
<path d="M65.1006 27.6001C65.1006 28.8001 64.5006 34.5001 63.6006 35.4001C63.6006 35.4001 72.9006 33.0001 74.7006 34.2001C72.3006 30.9001 65.1006 27.6001 65.1006 27.6001Z" fill="#939FC6"/>
<path d="M47.6998 32.4001H47.9998C47.0998 35.4001 44.6998 36.6001 42.2998 36.6001C41.0998 32.7001 30.8998 33.0001 30.8998 27.3001C30.5998 27.3001 30.2998 27.3001 30.2998 27.3001V27.0001C32.6998 20.4001 36.8998 14.4001 37.7998 14.1001C37.7998 18.3001 38.6998 22.5001 43.1998 26.1001C43.1998 29.4001 46.1998 30.3001 47.6998 32.4001Z" fill="#CED8EE"/>
<path d="M77.1007 19.7999C77.7007 22.1999 76.8006 24.5999 75.3006 24.8999C73.8006 25.1999 72.3006 23.3999 71.7006 20.9999C71.1006 18.5999 72.0006 16.1999 73.5006 15.8999C75.0006 15.5999 76.5007 17.3999 77.1007 19.7999Z" fill="#89DBBA"/>
<path d="M79.2004 29.7002C76.8004 29.4002 74.7003 27.9001 75.0003 26.4001C75.3003 24.9001 77.4004 24.0002 79.8004 24.3002C82.2004 24.6002 84.3003 26.1001 84.0003 27.6001C84.0003 29.1001 81.9004 30.0002 79.2004 29.7002Z" fill="#B1F1A8"/>
<path d="M86.4005 20.7C84.0005 21.6 81.6005 21.3 81.0005 19.8C80.4005 18.3 81.9005 16.5 84.3005 15.6C86.7005 14.7 89.1005 15 89.7005 16.5C90.3005 17.7 88.8005 19.5 86.4005 20.7Z" fill="#B1F1A8"/>
<path d="M72.5996 43.1998C71.9996 43.1998 71.0996 42.5998 71.0996 41.9998C70.4996 38.3998 69.8996 31.7998 73.1996 25.7998C75.5996 21.5998 78.5996 19.4998 80.6996 18.5998C81.5996 18.2998 82.4996 18.5998 82.7996 19.4998C83.0996 20.3998 82.7996 21.2998 81.8996 21.5998C80.6996 22.1998 77.9996 23.6998 75.8996 27.2998C72.8996 32.3998 73.4996 38.0998 74.0996 41.3998C74.3996 42.2998 73.7996 42.8998 72.5996 43.1998C72.8996 43.1998 72.8996 43.1998 72.5996 43.1998Z" fill="#494949"/>
<path d="M75 26.6999C73.8 26.6999 72.9 26.0999 72 25.1999C71.1 24.2999 70.5 22.7999 70.2 21.2999C69.9 19.7999 69.9 18.2999 70.5 17.0999C71.1 15.5999 72 14.6999 73.2 14.3999C75.6 14.0999 78 16.1999 78.6 19.7999C79.2 23.3999 78 26.0999 75.6 26.6999C75.3 26.3999 75 26.6999 75 26.6999ZM73.8 17.3999C73.8 17.3999 73.5 17.6999 73.2 17.9999C72.9 18.5999 72.9 19.4999 73.2 20.3999C73.5 21.2999 73.8 22.1999 74.1 22.7999C74.4 23.0999 74.7 23.3999 74.7 23.3999C75 23.3999 75.6 22.1999 75.3 20.0999C75 18.2999 74.1 17.3999 73.8 17.3999Z" fill="#494949"/>
<path d="M80.3999 31.2001C80.0999 31.2001 79.4999 31.2001 78.8999 31.2001C75.5999 30.6001 73.1999 28.5001 73.4999 26.1001C73.7999 24.9001 74.7 23.7001 76.2 23.1001C77.4 22.5001 78.8999 22.5001 80.3999 22.8001C83.6999 23.4001 86.0999 25.5001 85.7999 27.9001C85.4999 29.1001 84.6 30.3001 83.1 30.9001C82.5 31.2001 81.2999 31.2001 80.3999 31.2001ZM79.4999 28.2001C80.3999 28.2001 81.2999 28.2001 81.8999 27.9001C82.4999 27.6001 82.4999 27.6001 82.4999 27.3001C82.4999 27.0001 81.5999 26.1001 79.7999 25.8001C78.8999 25.8001 77.9999 25.8001 77.3999 26.1001C76.7999 26.4001 76.7999 26.4001 76.7999 26.7001C76.7999 26.7001 77.6999 27.9001 79.4999 28.2001Z" fill="#494949"/>
<path d="M84.0004 22.8C81.9004 22.8 80.4004 21.9 79.8004 20.4C79.2004 19.2 79.5004 17.7 80.4004 16.5C81.3004 15.6 82.5005 14.7 83.7005 14.1C85.2005 13.5 86.7004 13.2 87.9004 13.5C89.4004 13.8 90.6005 14.7 91.2005 15.9C92.1005 18 90.3004 21 87.0004 22.2C86.1004 22.5 84.9004 22.8 84.0004 22.8ZM87.0004 16.5C86.4004 16.5 85.8004 16.5 84.9004 16.8C84.0004 17.1 83.4004 17.7 82.8004 18.3C82.5004 18.6 82.5004 18.9 82.5004 19.2C82.5004 19.5 84.0004 19.8 85.8004 19.2C87.6004 18.3 88.2005 17.1 88.2005 17.1C88.2005 17.1 87.9004 16.8 87.3004 16.8C87.3004 16.5 87.3004 16.5 87.0004 16.5Z" fill="#494949"/>
<path d="M41.6999 75.9001C41.0999 75.9001 40.4999 75.6001 40.1999 75.0001C39.8999 74.4001 39.8999 73.2001 40.7999 72.9001C44.6999 69.9001 44.3999 65.4001 44.3999 65.4001C44.3999 64.5001 44.9999 63.9001 45.8999 63.6001C46.7999 63.6001 47.3999 64.2001 47.6999 65.1001C47.6999 65.4001 48.2999 71.4001 42.8999 75.3001L42.5999 75.6001C41.9999 75.9001 41.6999 75.9001 41.6999 75.9001Z" fill="#494949"/>
<path d="M50.9998 73.8003L49.4998 73.2003L48.2998 72.3003C50.6998 69.0003 49.4998 64.5003 49.4998 64.2003C49.1998 63.3003 49.7998 62.4003 50.6998 62.4003C51.5998 62.1003 52.4998 62.7003 52.4998 63.6003C52.1998 63.6003 53.9998 69.3003 50.9998 73.8003Z" fill="#494949"/>
<path d="M40.5006 78.9003C40.2006 78.9003 40.2006 78.9003 39.9006 78.9003C39.0006 78.6003 38.7006 77.7003 39.0006 76.8003L39.3006 75.9003H38.4006C37.5006 75.9003 36.9006 75.3003 36.6006 74.4003C36.6006 73.5003 37.2006 72.9003 38.1006 72.6003L41.7006 72.3003C42.3006 72.3003 42.9006 72.6003 43.2006 72.9003C43.5006 73.2003 43.5006 74.1003 43.2006 74.4003L41.7006 77.7003C41.7006 78.6003 41.1006 78.9003 40.5006 78.9003Z" fill="#494949"/>
<path d="M48.6003 78.3002H48.3003C47.4003 78.0002 47.1003 77.1002 47.1003 76.5002L47.4003 75.3002L46.2003 75.6002C45.3003 75.9002 44.4003 75.3002 44.4003 74.4002C44.1003 73.5002 44.7003 72.6002 45.6003 72.6002L49.2003 71.7002C49.8003 71.7002 50.4003 71.7002 50.7003 72.3002C51.0003 72.6002 51.3003 73.2002 51.0003 73.8002L49.8003 77.4002C49.8003 77.7002 49.2003 78.3002 48.6003 78.3002Z" fill="#494949"/>
<path d="M47.6998 33.9001C47.0998 33.9001 46.7998 33.6001 46.4998 33.3001C46.1998 32.7001 45.5998 32.4001 44.9998 31.8001C43.7998 30.6001 42.2998 29.4001 41.9998 27.0001C38.6998 24.3001 37.1998 21.0001 36.8998 18.0001C35.3998 20.1001 33.5998 23.7001 32.0998 27.6001C31.7998 28.5001 30.8998 28.8001 29.9998 28.5001C29.0998 28.2001 28.7998 27.3001 29.0998 26.4001C31.1998 20.7001 35.3998 13.2001 37.7998 12.6001C38.3998 12.6001 38.6998 12.6001 39.2998 12.9001C39.5998 13.2001 39.8998 13.8001 39.8998 14.1001C39.8998 18.3001 40.7998 21.6001 44.6998 24.9001C44.9998 25.2001 45.2998 25.5001 45.2998 26.1001C45.2998 27.6001 46.1998 28.5001 47.3998 29.7001C47.9998 30.3001 48.8998 30.9001 49.4998 31.8001C50.0998 32.4001 49.7998 33.6001 49.1998 33.9001C48.2998 33.9001 47.9998 33.9001 47.6998 33.9001Z" fill="#494949"/>
<path d="M22.2002 83.7C19.8002 83.7 17.4002 83.1 15.0002 82.2C9.60019 79.8 4.2002 74.7 4.2002 68.4C4.2002 67.5 4.8002 66.9 5.7002 66.9C11.4002 66.3 23.4002 61.5 27.3002 55.5C16.5002 53.1 12.0002 46.2 9.90018 40.8C6.00018 30.9 8.70019 18.3 12.3002 14.1C12.6002 13.5 13.5002 13.5 14.1002 13.5C14.7002 13.8 15.3002 14.1 15.3002 15C15.9002 20.4 21.3002 24 30.6002 25.5H31.2002C32.1002 25.5 32.4002 26.1 32.7002 27C32.7002 29.1 34.8002 30 38.1002 31.5C40.2002 32.4 42.3002 33.3 43.5002 34.8C45.0002 34.5 46.2002 33.6 46.5002 31.8C46.5002 31.5 46.5002 31.2 46.8002 31.2C47.7002 27 49.8002 24 52.5002 22.5C58.2002 19.5 63.6002 21.3 66.9002 27C67.5002 27.3 67.8002 27.6 68.4002 27.9C69.9002 28.5 71.7002 29.4 74.7002 33C75.0002 33.6 75.3002 34.2 74.7002 34.8C74.4002 35.4 73.8002 35.7 72.9002 35.4C68.7002 34.5 66.6002 35.7 66.3002 35.7H66.0002C65.4002 36 63.3002 37.2 63.0002 46.5C62.7002 51.9 61.2002 56.7 57.9002 60.3C55.2002 63.6 49.5002 67.2 38.4002 66.6C36.9002 73.8 31.2002 81 25.8002 82.8C24.9002 83.7 23.7002 83.7 22.2002 83.7ZM7.50019 69.9C8.40019 74.1 12.3002 77.7 16.2002 79.5C19.2002 81 22.5002 81.3 24.9002 80.4C29.7002 78.9 34.8002 71.4 35.7002 65.1C35.7002 64.2 36.6002 63.6 37.5002 63.9C48.3002 64.8 53.4002 61.8 55.8002 58.8C58.5002 55.5 60.0002 51.6 60.3002 46.8C60.6002 38.7 62.1002 34.2 65.4002 33.3C66.0002 33 67.2002 32.4 69.6002 32.4C68.7002 31.8 68.1002 31.2 67.2002 30.9C66.3002 30.6 65.7002 30.3 64.8002 29.4C64.5002 29.4 64.5002 29.1 64.5002 28.8C61.2002 22.8 56.7002 24 54.0002 25.5C52.2002 26.4 50.7002 28.8 49.8002 32.1C49.8002 32.4 49.8002 32.7 49.5002 32.7C48.3002 36.3 45.6002 38.4 42.3002 38.1C41.7002 38.1 41.1002 37.5 40.8002 36.9C40.5002 36 38.4002 35.1 36.6002 34.5C33.6002 33.3 30.3002 31.8 29.4002 28.5C21.0002 27.3 15.3002 24 12.9002 19.2C11.1002 24 9.90018 32.4 12.9002 39.6C15.6002 46.8 21.3002 51 30.0002 52.5C30.6002 52.5 30.9002 52.8 31.2002 53.4C31.5002 53.7 31.5002 54.3 31.2002 54.6C28.2002 62.4 15.0002 68.4 7.50019 69.9Z" fill="#494949"/>
<path d="M57.9 31.8001C57.6 31.8001 57 31.8001 56.7 31.5001C56.1 30.9001 56.1 30.0001 56.7 29.4001C57.3 28.8001 58.5 28.2001 60.3 29.1001C61.2 29.4001 61.5 30.3001 61.2 31.2001C60.9 32.1001 60 32.4001 59.1 32.1001C58.8 32.1001 59.1 32.1001 59.1 31.8001C58.5 31.5001 58.2 31.8001 57.9 31.8001Z" fill="#494949"/>
<path d="M33.2999 56.1003C32.0999 56.1003 30.8999 56.1003 29.6999 55.8003C28.7999 55.8003 28.1999 54.9003 28.4999 54.0003C28.4999 53.1003 29.3999 52.5003 30.2999 52.8003C37.4999 53.7003 42.5999 51.3003 42.5999 51.3003C43.4999 51.0003 44.3999 51.3003 44.6999 51.9003C44.9999 52.8003 44.6999 53.7003 44.0999 54.0003C43.4999 54.0003 39.2999 56.1003 33.2999 56.1003Z" fill="#494949"/>
<path d="M25.5005 54.8999C24.9005 54.8999 24.3005 54.5999 24.0005 53.9999C23.7005 53.0999 24.0005 52.1999 24.6005 51.8999C27.0005 50.6999 28.5005 47.9999 28.5005 47.9999C29.1005 47.3999 30.0005 47.0999 30.6005 47.3999C31.2005 47.9999 31.5005 48.8999 31.2005 49.4999C31.2005 49.4999 29.1005 52.7999 26.1005 54.5999C26.1005 54.8999 25.8005 54.8999 25.5005 54.8999Z" fill="#494949"/>
<path d="M34.4997 55.8001C33.8997 55.8001 33.5997 55.5001 33.2997 55.2001C32.6997 54.6001 32.9997 53.4001 33.5997 53.1001C34.7997 52.2001 35.3997 50.4001 35.6997 49.8001C35.9997 48.9001 36.8997 48.6001 37.7997 48.9001C38.6997 49.2001 38.9997 50.1001 38.6997 51.0001C38.6997 51.3001 37.4997 54.3001 35.3997 55.8001C35.0997 55.8001 34.7997 55.8001 34.4997 55.8001Z" fill="#494949"/>
<path d="M42.6003 54.3001C42.3003 54.3001 42.0003 54.3001 41.7003 54.0001C41.1003 53.4001 40.8003 52.5001 41.4003 51.9001C41.7003 51.3001 42.3003 50.4001 42.3003 49.8001C42.6003 48.9001 43.5003 48.6001 44.4003 48.9001C45.3003 49.2001 45.6003 50.1001 45.3003 51.0001C45.3003 51.3001 44.7003 53.1001 43.8003 54.0001C43.8003 54.0001 43.2003 54.3001 42.6003 54.3001Z" fill="#494949"/>
<path d="M17.4003 50.4C16.8003 50.4 15.9003 49.8 15.9003 49.2C15.6003 48.3 16.2003 47.4 17.1003 47.4C20.1003 46.8 22.5003 44.7 22.5003 44.7C23.1003 44.1 24.0003 44.1 24.6003 44.7C25.2003 45.3 25.2003 46.2 24.6003 46.8C24.6003 47.1 21.6003 49.8 17.4003 50.4C17.7003 50.4 17.7003 50.4 17.4003 50.4Z" fill="#494949"/>
<path d="M12.9004 43.8002C12.0004 43.8002 11.4004 43.2002 11.4004 42.3002C11.4004 41.4002 12.0004 40.5002 12.6004 40.5002C15.9004 39.9002 18.3004 39.0002 18.3004 38.7002C19.2004 38.4002 20.1004 38.7002 20.4004 39.3002C20.7004 40.2002 20.4004 41.1002 19.8004 41.4002C19.5004 42.0002 16.8004 43.5002 12.9004 43.8002Z" fill="#494949"/>
<path d="M12.3001 36.3001C11.4001 36.3001 10.5001 36.3001 9.90009 36.0001C9.00009 35.7001 8.40011 35.1001 8.70011 34.2001C9.00011 33.3001 9.60011 32.7001 10.5001 33.0001C12.6001 33.3001 15.0001 33.0001 15.9001 32.7001C16.8001 32.4001 17.7001 33.0001 17.7001 33.9001C18.0001 34.8001 17.4001 35.7001 16.5001 35.7001C16.5001 35.7001 14.7001 36.3001 12.3001 36.3001Z" fill="#494949"/>
<path d="M16.1998 29.7003C15.5998 29.7003 11.3998 29.4003 8.9998 27.6003C8.3998 27.0003 8.3998 26.1003 8.9998 25.5003C9.5998 24.9003 10.4998 24.9003 11.0998 25.5003C11.9998 26.4003 14.6998 26.7003 16.1998 27.0003C17.0998 27.0003 17.6998 27.6003 17.6998 28.5003C17.6998 29.1003 17.0998 29.7003 16.1998 29.7003Z" fill="#494949"/>
<path d="M9 77.4C8.1 77.4 7.5 76.8 7.5 76.2C7.5 75.3 7.8 74.4 8.7 74.4C11.4 73.8 14.7 72.3 15 72C15.9 71.7 16.8 72 17.1 72.6C17.4 73.5 17.1 74.4 16.5 74.7C15.9 75 12.6 76.8 9 77.4C9.3 77.4 9.3 77.4 9 77.4Z" fill="#494949"/>
<path d="M15.6001 82.2003C15.0001 82.2003 14.4001 81.9003 14.1001 81.3003C13.8001 80.4003 14.1001 79.5003 14.7001 79.2003C16.8001 78.0003 19.2001 76.5003 21.0001 75.0003C21.6001 74.4003 22.5001 74.4003 23.1001 75.0003C23.7001 75.6003 23.7001 76.5003 23.1001 77.1003C21.3001 78.9003 18.6001 80.7003 16.2001 81.9003C16.2001 82.2003 15.9001 82.2003 15.6001 82.2003Z" fill="#494949"/>
<path d="M65.1002 31.8C64.8002 31.8 64.2002 31.8 63.9002 31.5C63.3002 30.9 63.3002 30 63.9002 29.4V29.1C63.9002 28.8 63.9002 28.8 63.9002 28.5C63.9002 27.6 64.5002 27 65.4002 27C66.0002 27 66.6002 27.3 66.9002 27.9C67.2002 28.5 67.2002 30.6 66.3002 31.5C66.0002 31.5 65.7002 31.8 65.1002 31.8Z" fill="#494949"/>
</svg>
