<svg width="24" height="24" viewBox="0 0 24 24" fill="none" xmlns="http://www.w3.org/2000/svg">
<g clip-path="url(#clip0_213_26969)">
<path opacity="0.6" d="M12 3.99951C7.59 3.99951 4 7.58951 4 11.9995C4 16.4095 7.59 19.9995 12 19.9995C16.41 19.9995 20 16.4095 20 11.9995C20 7.58951 16.41 3.99951 12 3.99951ZM13 16.9995H11V10.9995H13V16.9995ZM13 8.99951H11V6.99951H13V8.99951Z" fill="#00B914"/>
<path d="M11 6.99951H13V8.99951H11V6.99951ZM11 10.9995H13V16.9995H11V10.9995ZM12 1.99951C6.48 1.99951 2 6.47951 2 11.9995C2 17.5195 6.48 21.9995 12 21.9995C17.52 21.9995 22 17.5195 22 11.9995C22 6.47951 17.52 1.99951 12 1.99951ZM12 19.9995C7.59 19.9995 4 16.4095 4 11.9995C4 7.58951 7.59 3.99951 12 3.99951C16.41 3.99951 20 7.58951 20 11.9995C20 16.4095 16.41 19.9995 12 19.9995Z" fill="#090A09"/>
</g>
<defs>
<clipPath id="clip0_213_26969">
<rect width="24" height="24" fill="white" transform="translate(0 -0.000488281)"/>
</clipPath>
</defs>
</svg>
