<svg width="32" height="32" viewBox="0 0 32 32" fill="none" xmlns="http://www.w3.org/2000/svg">
<path d="M16 25.2003C23.732 25.2003 30 21.0813 30 16.0003C30 10.9193 23.732 6.80029 16 6.80029C8.26801 6.80029 2 10.9193 2 16.0003C2 21.0813 8.26801 25.2003 16 25.2003Z" fill="white"/>
<path d="M16.0004 25.6002C8.60038 25.6002 3.20039 19.8002 1.60039 16.1002C1.50039 16.0002 1.50039 15.8002 1.60039 15.7002C3.30039 12.0002 8.70038 6.2002 16.0004 6.2002C23.4004 6.2002 28.8004 12.0002 30.4004 15.7002C30.5004 15.8002 30.5004 16.0002 30.4004 16.1002C28.7004 19.8002 23.3004 25.6002 16.0004 25.6002ZM2.50038 16.0002C4.00038 19.0002 9.00038 24.7002 16.0004 24.7002C23.0004 24.7002 28.0004 19.0002 29.5004 16.0002C28.0004 13.0002 23.0004 7.3002 16.0004 7.3002C9.00038 7.3002 4.00038 13.0002 2.50038 16.0002Z" fill="#494949"/>
<path d="M16.0002 22.3002C19.4796 22.3002 22.3002 19.4796 22.3002 16.0002C22.3002 12.5208 19.4796 9.7002 16.0002 9.7002C12.5208 9.7002 9.7002 12.5208 9.7002 16.0002C9.7002 19.4796 12.5208 22.3002 16.0002 22.3002Z" fill="#96D7FF"/>
<path d="M16.0006 19.4001C17.8783 19.4001 19.4006 17.8779 19.4006 16.0001C19.4006 14.1223 17.8783 12.6001 16.0006 12.6001C14.1228 12.6001 12.6006 14.1223 12.6006 16.0001C12.6006 17.8779 14.1228 19.4001 16.0006 19.4001Z" fill="#939FC6"/>
<path d="M16.0006 19.8C13.9006 19.8 12.1006 18.1 12.1006 15.9C12.1006 13.7 13.8006 12 16.0006 12C16.6006 12 17.1006 12.1 17.6006 12.4C17.8006 12.5 17.9006 12.8 17.8006 13C17.7006 13.2 17.4006 13.3 17.2006 13.2C16.8006 13 16.4006 12.9 16.0006 12.9C14.4006 12.9 13.1006 14.2 13.1006 15.8C13.1006 17.4 14.4006 18.7 16.0006 18.7C17.6006 18.7 18.9006 17.4 18.9006 15.8C18.9006 15.4 18.8006 15 18.6006 14.6C18.5006 14.4 18.6006 14.1 18.8006 14C19.0006 13.9 19.3006 14 19.4006 14.2C19.6006 14.7 19.8006 15.3 19.8006 15.8C19.9006 18.1 18.2006 19.8 16.0006 19.8Z" fill="#494949"/>
<path d="M16.0002 22.7001C12.3002 22.7001 9.2002 19.7001 9.2002 15.9001C9.2002 12.1001 12.2002 9.1001 16.0002 9.1001C19.8002 9.1001 22.8002 12.1001 22.8002 15.9001C22.8002 19.7001 19.8002 22.7001 16.0002 22.7001ZM16.0002 10.2001C12.8002 10.2001 10.2002 12.8001 10.2002 16.0001C10.2002 19.2001 12.8002 21.8001 16.0002 21.8001C19.2002 21.8001 21.8002 19.2001 21.8002 16.0001C21.8002 12.8001 19.2002 10.2001 16.0002 10.2001Z" fill="#494949"/>
</svg>
