<svg width="96" height="96" viewBox="0 0 96 96" fill="none" xmlns="http://www.w3.org/2000/svg">
<path d="M48 75.5999C71.196 75.5999 90 63.243 90 47.9999C90 32.7568 71.196 20.3999 48 20.3999C24.804 20.3999 6 32.7568 6 47.9999C6 63.243 24.804 75.5999 48 75.5999Z" fill="white"/>
<path d="M48.0002 76.8001C25.8002 76.8001 9.6002 59.4001 4.8002 48.3001C4.5002 48.0001 4.5002 47.4001 4.8002 47.1001C9.9002 36.0001 26.1002 18.6001 48.0002 18.6001C70.2002 18.6001 86.4002 36.0001 91.2002 47.1001C91.5002 47.4001 91.5002 48.0001 91.2002 48.3001C86.1002 59.4001 69.9002 76.8001 48.0002 76.8001ZM7.50018 48.0001C12.0002 57.0001 27.0002 74.1001 48.0002 74.1001C69.0002 74.1001 84.0002 57.0001 88.5002 48.0001C84.0002 39.0001 69.0002 21.9001 48.0002 21.9001C27.0002 21.9001 12.0002 39.0001 7.50018 48.0001Z" fill="#494949"/>
<path d="M48.0005 66.9001C58.4387 66.9001 66.9006 58.4383 66.9006 48.0001C66.9006 37.5619 58.4387 29.1001 48.0005 29.1001C37.5624 29.1001 29.1006 37.5619 29.1006 48.0001C29.1006 58.4383 37.5624 66.9001 48.0005 66.9001Z" fill="#96D7FF"/>
<path d="M47.9998 58.2003C53.6331 58.2003 58.1998 53.6336 58.1998 48.0003C58.1998 42.367 53.6331 37.8003 47.9998 37.8003C42.3665 37.8003 37.7998 42.367 37.7998 48.0003C37.7998 53.6336 42.3665 58.2003 47.9998 58.2003Z" fill="#939FC6"/>
<path d="M47.9998 59.4C41.6998 59.4 36.2998 54.3 36.2998 47.7C36.2998 41.1 41.3998 36 47.9998 36C49.7998 36 51.2998 36.3 52.7998 37.2C53.3998 37.5 53.6998 38.4 53.3998 39C53.0998 39.6 52.1998 39.9 51.5998 39.6C50.3998 39 49.1998 38.7 47.9998 38.7C43.1998 38.7 39.2998 42.6 39.2998 47.4C39.2998 52.2 43.1998 56.1 47.9998 56.1C52.7998 56.1 56.6998 52.2 56.6998 47.4C56.6998 46.2 56.3998 45 55.7998 43.8C55.4998 43.2 55.7998 42.3 56.3998 42C56.9998 41.7 57.8998 42 58.1998 42.6C58.7998 44.1 59.3998 45.9 59.3998 47.4C59.6998 54.3 54.5998 59.4 47.9998 59.4Z" fill="#494949"/>
<path d="M48.0005 68.1003C36.9005 68.1003 27.6006 59.1003 27.6006 47.7003C27.6006 36.3003 36.6005 27.3003 48.0005 27.3003C59.4005 27.3003 68.4006 36.3003 68.4006 47.7003C68.4006 59.1003 59.4005 68.1003 48.0005 68.1003ZM48.0005 30.6003C38.4005 30.6003 30.6006 38.4003 30.6006 48.0003C30.6006 57.6003 38.4005 65.4003 48.0005 65.4003C57.6005 65.4003 65.4006 57.6003 65.4006 48.0003C65.4006 38.4003 57.6005 30.6003 48.0005 30.6003Z" fill="#494949"/>
</svg>
