<svg xmlns="http://www.w3.org/2000/svg" width="36" height="35" viewBox="0 0 36 35" fill="none">
<g clip-path="url(#clip0_976_20319)">
<path d="M24.75 4.86108C22.14 4.86108 19.635 6.04233 18 7.909C16.365 6.04233 13.86 4.86108 11.25 4.86108C6.63 4.86108 3 8.39024 3 12.8819C3 18.3944 8.1 22.8861 15.825 29.711L18 31.6215L20.175 29.6965C27.9 22.8861 33 18.3944 33 12.8819C33 8.39024 29.37 4.86108 24.75 4.86108ZM18.15 27.5381L18 27.684L17.85 27.5381C10.71 21.2527 6 17.0965 6 12.8819C6 9.96524 8.25 7.77775 11.25 7.77775C13.56 7.77775 15.81 9.22149 16.605 11.2194H19.41C20.19 9.22149 22.44 7.77775 24.75 7.77775C27.75 7.77775 30 9.96524 30 12.8819C30 17.0965 25.29 21.2527 18.15 27.5381Z" fill="#2B2C2B"/>
</g>
<defs>
<clipPath id="clip0_976_20319">
<rect width="36" height="34.9999" fill="white"/>
</clipPath>
</defs>
</svg>
