<svg width="32" height="32" viewBox="0 0 32 32" fill="none" xmlns="http://www.w3.org/2000/svg">
<path d="M9 27H2V30H9V27Z" fill="#CED8EE"/>
<path d="M16 24H9V30H16V24Z" fill="#97C1FF"/>
<path d="M23 21H16V30H23V21Z" fill="#C9C1F5"/>
<path d="M30 18H23V30H30V18Z" fill="#FF99B1"/>
<path d="M14.9002 13.2998C15.1002 13.7998 15.3002 15.8998 15.2002 16.2998C15.0002 18.0998 11.8002 21.7998 11.6002 22.2998C11.7002 22.9998 13.9002 22.9998 12.1002 23.8998C11.3002 24.2998 9.00016 23.1998 9.70016 21.7998C9.70016 21.7998 12.3002 17.8998 12.3002 16.6998C12.2002 16.0998 11.8002 13.4998 12.2002 12.2998C12.7002 10.6998 14.2002 9.9998 14.3002 8.0998C14.3002 7.4998 13.2002 7.0998 12.6002 7.1998C12.2002 7.2998 11.1002 8.0998 10.4002 8.7998C10.3002 8.8998 10.1002 8.9998 10.0002 9.0998C9.80016 9.2998 9.70017 9.3998 9.60017 9.4998C8.20017 11.3998 7.00016 10.2998 8.20016 8.5998C8.50016 8.2998 9.00016 8.2998 9.20016 8.0998C9.30016 7.9998 9.20016 7.6998 9.30016 7.5998C10.3002 6.4998 12.2002 5.1998 12.7002 5.0998C14.2002 4.7998 16.5002 5.3998 17.7002 6.0998C17.5002 4.8998 17.2002 4.4998 17.5002 3.3998C17.8002 2.3998 19.2002 1.6998 20.2002 2.0998C21.2002 2.4998 21.5002 3.3998 21.5002 4.2998C21.5002 5.2998 20.8002 6.0998 19.9002 6.4998L19.4002 7.0998C19.4002 7.0998 21.2002 8.4998 21.9002 8.6998C22.2002 8.7998 23.5002 8.3998 24.5002 7.5998C24.6002 7.4998 24.7002 7.4998 24.8002 7.3998C25.0002 7.1998 24.9002 6.9998 25.1002 6.5998C26.3002 4.6998 27.7002 6.2998 26.6002 7.6998C26.5002 7.7998 26.0002 8.1998 25.9002 8.2998C25.8002 8.3998 25.8002 8.5998 25.7002 8.6998C24.6002 9.8998 22.2002 11.2998 21.6002 11.1998C20.5002 10.9998 18.4002 9.7998 18.4002 9.7998C18.4002 9.7998 17.5002 11.5998 16.7002 12.1998C18.0002 12.3998 19.4002 13.1998 19.4002 13.8998C19.4002 15.8998 16.0002 18.8998 16.0002 18.8998C16.2002 18.9998 17.0002 19.4998 16.8002 19.9998C16.6002 20.2998 15.4002 20.4998 14.7002 20.2998C14.4002 20.1998 13.6002 19.9998 14.3002 18.7998" fill="#CED8EE"/>
<path d="M9 30.5H2C1.7 30.5 1.5 30.3 1.5 30V27C1.5 26.7 1.7 26.5 2 26.5H9C9.3 26.5 9.5 26.7 9.5 27V30C9.5 30.2 9.3 30.5 9 30.5ZM2.5 29.5H8.5V27.5H2.5V29.5Z" fill="#494949"/>
<path d="M16 30.5H9C8.7 30.5 8.5 30.3 8.5 30V24C8.5 23.7 8.7 23.5 9 23.5H16C16.3 23.5 16.5 23.7 16.5 24V30C16.5 30.2 16.3 30.5 16 30.5ZM9.5 29.5H15.5V24.5H9.5V29.5Z" fill="#494949"/>
<path d="M23 30.5H16C15.7 30.5 15.5 30.3 15.5 30V21C15.5 20.7 15.7 20.5 16 20.5H23C23.3 20.5 23.5 20.7 23.5 21V30C23.5 30.2 23.3 30.5 23 30.5ZM16.5 29.5H22.5V21.5H16.5V29.5Z" fill="#494949"/>
<path d="M30 30.5H23C22.7 30.5 22.5 30.3 22.5 30V18C22.5 17.7 22.7 17.5 23 17.5H30C30.3 17.5 30.5 17.7 30.5 18V30C30.5 30.2 30.3 30.5 30 30.5ZM23.5 29.5H29.5V18.5H23.5V29.5Z" fill="#494949"/>
<path d="M11.6999 24.4999C10.9999 24.4999 10.1999 24.0999 9.69994 23.5999C9.09994 22.9999 8.99993 22.2999 9.29993 21.5999C10.3999 19.9999 11.8999 17.4999 11.7999 16.7999V16.4999C11.5999 14.8999 11.3999 13.1999 11.6999 12.1999C11.8999 11.3999 12.3999 10.8999 12.7999 10.2999C13.2999 9.59985 13.7999 9.09985 13.7999 8.09985C13.6999 7.89985 13.0999 7.69985 12.6999 7.69985C12.3999 7.79985 11.3999 8.39985 10.7999 9.19985C10.6999 9.29985 10.4999 9.39985 10.3999 9.49985C10.1999 9.59985 10.1999 9.69985 10.0999 9.79985C9.09994 11.1999 8.19994 11.1999 7.69994 10.8999C7.19994 10.4999 6.99993 9.59985 7.79993 8.49985C7.99993 8.19985 8.39994 7.99985 8.69994 7.99985H8.79993C8.79993 7.79985 8.79993 7.59985 8.99993 7.39985C9.99993 6.19985 11.9999 4.89985 12.6999 4.79985C13.9999 4.49985 15.7999 4.89985 17.0999 5.39985C16.9999 4.79985 16.8999 4.29985 17.0999 3.49985C17.2999 2.89985 17.7999 2.39985 18.3999 1.99985C19.0999 1.69985 19.8999 1.59985 20.4999 1.79985C21.5999 2.19985 22.1999 3.19985 22.0999 4.49985C22.0999 5.59985 21.3999 6.59985 20.2999 6.99985H20.0999C20.7999 7.49985 21.6999 8.09985 21.9999 8.19985C22.1999 8.19985 23.1999 7.89985 24.0999 7.19985C24.1999 7.09985 24.2999 7.09985 24.2999 6.99985C24.2999 6.99985 24.2999 6.99985 24.2999 6.89985C24.2999 6.69985 24.3999 6.49985 24.4999 6.19985C25.0999 5.19985 25.7999 4.99985 26.1999 5.09985C26.6999 5.09985 26.9999 5.39985 27.1999 5.89985C27.4999 6.49985 27.2999 7.29985 26.7999 7.89985C26.6999 7.99985 26.5999 8.09985 26.3999 8.29985C26.2999 8.39985 26.0999 8.49985 25.9999 8.59985C25.8999 8.79985 25.8999 8.89985 25.7999 8.99985C24.7999 10.0999 22.0999 11.7999 21.2999 11.5999C20.3999 11.4999 19.0999 10.7999 18.3999 10.3999C18.1999 10.7999 17.7999 11.3999 17.4999 11.8999C18.5999 12.2999 19.6999 12.9999 19.6999 13.7999C19.6999 15.5999 17.5999 17.7999 16.5999 18.6999C16.9999 19.0999 17.2999 19.5999 16.9999 20.0999C16.5999 20.6999 15.0999 20.8999 14.2999 20.6999C13.9999 20.5999 13.6999 20.4999 13.5999 20.2999C13.1999 20.7999 12.8999 21.2999 12.4999 21.7999C12.3999 21.9999 12.1999 22.1999 12.0999 22.2999C12.1999 22.2999 12.2999 22.3999 12.3999 22.3999C12.7999 22.5999 13.1999 22.7999 13.1999 23.2999C13.1999 23.7999 12.6999 24.0999 12.1999 24.3999C12.0999 24.3999 11.8999 24.4999 11.6999 24.4999ZM12.7999 6.79985C13.2999 6.79985 13.8999 6.99985 14.2999 7.29985C14.6999 7.59985 14.6999 7.99985 14.6999 8.19985C14.5999 9.39985 13.9999 10.1999 13.4999 10.8999C13.0999 11.3999 12.7999 11.8999 12.5999 12.4999C12.2999 13.3999 12.5999 15.4999 12.6999 16.3999V16.6999C12.7999 17.9999 10.4999 21.3999 9.99993 22.0999C9.99993 22.1999 9.79994 22.4999 10.1999 22.8999C10.6999 23.3999 11.4999 23.5999 11.6999 23.4999C11.7999 23.4999 11.8999 23.3999 11.8999 23.3999C11.4999 23.1999 10.9999 22.9999 10.9999 22.3999C10.9999 22.2999 10.9999 22.1999 10.9999 22.0999C11.0999 21.8999 11.2999 21.6999 11.6999 21.1999C12.5999 19.9999 14.4999 17.4999 14.5999 16.2999C14.5999 15.8999 14.3999 13.8999 14.2999 13.4999C14.1999 13.1999 14.2999 12.9999 14.5999 12.8999C14.8999 12.7999 15.0999 12.8999 15.1999 13.1999C15.3999 13.7999 15.5999 15.8999 15.5999 16.4999C15.4999 17.1999 15.0999 17.9999 14.4999 18.9999C14.4999 18.9999 14.4999 19.0999 14.3999 19.0999C14.1999 19.4999 14.1999 19.6999 14.1999 19.6999C14.1999 19.6999 14.2999 19.7999 14.3999 19.7999C14.8999 19.8999 15.5999 19.7999 15.8999 19.6999C15.7999 19.5999 15.5999 19.3999 15.3999 19.2999C15.2999 19.1999 15.1999 19.0999 15.0999 18.8999C15.0999 18.6999 15.0999 18.5999 15.2999 18.4999C16.1999 17.6999 18.4999 15.3999 18.4999 13.8999C18.4999 13.6999 17.5999 12.9999 16.2999 12.6999C16.0999 12.6999 15.9999 12.4999 15.8999 12.2999C15.8999 12.0999 15.8999 11.8999 16.0999 11.7999C16.5999 11.3999 17.3999 9.99985 17.5999 9.49985C17.6999 9.39985 17.7999 9.29985 17.8999 9.19985C17.9999 9.19985 18.1999 9.19985 18.2999 9.19985C18.8999 9.49985 20.4999 10.3999 21.2999 10.5999C21.6999 10.5999 23.8999 9.39985 24.8999 8.29985C24.8999 8.29985 24.8999 8.19985 24.9999 8.19985C24.9999 8.09985 25.0999 7.99985 25.1999 7.89985C25.2999 7.79985 25.4999 7.69985 25.6999 7.49985C25.7999 7.39985 25.8999 7.29985 25.9999 7.29985C26.2999 6.89985 26.2999 6.49985 26.1999 6.29985C26.1999 6.19985 26.0999 6.09985 25.9999 6.09985C25.7999 6.09985 25.5999 6.29985 25.1999 6.79985C25.0999 6.89985 25.0999 6.99985 25.0999 7.09985C25.0999 7.29985 24.9999 7.49985 24.7999 7.69985C24.6999 7.79985 24.6999 7.79985 24.5999 7.79985C24.5999 7.79985 24.4999 7.79985 24.4999 7.89985C23.3999 8.79985 21.9999 9.29985 21.3999 9.09985C20.6999 8.89985 19.0999 7.69985 18.7999 7.39985C18.6999 7.29985 18.5999 7.19985 18.5999 7.09985C18.5999 6.99985 18.5999 6.79985 18.6999 6.69985L19.1999 6.09985C19.2999 5.99985 19.2999 5.99985 19.3999 5.99985C19.9999 5.79985 20.5999 5.19985 20.6999 4.29985C20.6999 3.69985 20.5999 2.89985 19.6999 2.59985C19.2999 2.49985 18.8999 2.49985 18.3999 2.69985C17.9999 2.89985 17.6999 3.19985 17.5999 3.59985C17.3999 4.19985 17.4999 4.49985 17.5999 5.09985C17.6999 5.39985 17.6999 5.69985 17.7999 5.99985C17.7999 6.19985 17.6999 6.39985 17.5999 6.49985C17.3999 6.59985 17.1999 6.59985 17.0999 6.49985C15.8999 5.79985 13.7999 5.29985 12.3999 5.59985C12.0999 5.69985 10.2999 6.69985 9.29993 7.79985C9.29993 7.99985 9.29994 8.29985 9.09994 8.49985C8.89994 8.69985 8.69993 8.69985 8.49993 8.79985C8.39993 8.79985 8.19994 8.89985 8.09994 8.99985C7.69994 9.59985 7.69994 9.99985 7.69994 10.0999C7.79994 10.0999 8.19994 9.99985 8.69994 9.29985C8.79994 9.19985 8.79993 9.19985 8.89993 9.09985C8.89993 9.09985 8.99994 8.99985 9.09994 8.89985C9.19994 8.79985 9.29993 8.69985 9.39993 8.69985C9.39993 8.69985 9.49993 8.69985 9.49993 8.59985C10.0999 7.89985 11.2999 6.99985 11.9999 6.79985C12.5999 6.79985 12.6999 6.79985 12.7999 6.79985Z" fill="#494949"/>
<path d="M15.7002 15.6C15.4002 15.6 15.2002 15.6 15.1002 15.5C14.8002 15.4 14.7002 15.2 14.7002 14.9C14.8002 14.6 15.0002 14.5 15.3002 14.5C15.3002 14.5 15.6002 14.6 16.2002 14.5C16.5002 14.5 16.7002 14.6 16.8002 14.9C16.8002 15.2 16.7002 15.4 16.4002 15.5C16.2002 15.6 15.9002 15.6 15.7002 15.6Z" fill="#494949"/>
</svg>
