<svg width="204" height="139" viewBox="0 0 204 139" fill="none" xmlns="http://www.w3.org/2000/svg">
<path d="M0.5 6C0.5 2.96243 2.96243 0.5 6 0.5H198C201.038 0.5 203.5 2.96243 203.5 6V138.5H0.5V6Z" fill="white" stroke="#DDDEDD"/>
<path d="M141.1 64.0999C141.2 64.1999 141.3 64.2999 141.4 64.3999C142 65.2999 141.8 66.1999 142.1 67.2999C142.3 67.7999 143.5 68.0999 142.8 68.8999C142.6 69.1999 141.8 69.7999 141.3 70.4999C140.5 71.3999 140.1 73.0999 140 74.3999C139.6 79.7999 140.7 85.0999 141.9 90.2999C142 90.5999 142 90.8999 142.2 91.0999C142.6 91.4999 143.2 91.5999 143.7 91.5999C146.2 91.6999 148.8 91.9999 151.3 92.5999C153.5 93.0999 155.8 93.7999 157.5 95.1999C159.3 96.5999 160.6 98.7999 160.4 101.1C160.2 102.8 159.2 104.4 157.7 105.2C154 107.3 149.2 103.5 145.9 101.8C142.9 100.2 139.9 98.4999 137.1 96.4999C136.8 96.2999 136.4 95.9999 136.2 95.5999C136 95.1999 135.9 94.7999 135.8 94.2999C135.1 88.4999 134.8 82.7999 134.7 76.8999C134.7 75.2999 135.5 73.8999 135.4 72.3999C135.4 71.4999 134.7 70.6999 134.4 69.8999C134.2 68.9999 134.1 67.7999 134.2 66.8999C134.4 65.0999 136 64.2999 137.4 63.2999C137.7 63.0999 138 62.8999 138.3 62.8999C138.9 62.7999 139.4 63.0999 139.9 63.3999C140.6 63.6999 140.9 63.8999 141.1 64.0999Z" fill="#DDDEDD"/>
<path d="M145.801 105C142.501 103.2 139.401 101.1 136.801 98.7998C136.201 98.1998 135.501 97.5998 135.201 96.7998C134.901 96.0998 134.801 95.3998 134.801 94.6998C134.401 90.4998 134.101 86.2998 133.701 82.0998C133.601 81.4998 133.601 80.7998 134.101 80.3998C134.401 80.1998 134.801 80.1998 135.201 80.1998C136.901 80.2998 138.501 80.3998 140.201 80.3998C140.501 80.3998 140.801 80.3998 141.101 80.5998C141.301 80.7998 141.401 81.0998 141.501 81.2998C141.901 82.9998 141.301 84.8998 141.801 86.5998C142.301 88.0998 143.601 89.2998 145.101 89.9998C151.201 92.8998 159.301 92.1998 165.901 92.9998C169.401 93.3998 173.001 93.8998 176.001 95.7998C182.401 99.7998 180.801 109.6 173.101 110.6C166.501 111.5 159.701 110.6 153.501 108.3C150.901 107.5 148.301 106.3 145.801 105Z" fill="#A3A4A3"/>
<path d="M189.501 138H179.601C182.801 136.5 186.201 136.3 189.501 138Z" fill="#5B5C5B"/>
<path d="M190.001 138.3C189.801 138.2 189.701 138.1 189.501 138H172.801C178.101 136.6 183.701 135.5 188.901 135.1C189.201 136 189.601 136.9 189.901 138C189.901 138.1 190.001 138.2 190.001 138.3Z" fill="#5B5C5B"/>
<path d="M189.901 138C189.901 138.1 190.001 138.2 190.001 138.3C189.801 138.2 189.701 138.1 189.501 138H156.601C157.101 132.7 157.901 127.4 158.701 122.3C159.301 118.3 160.101 114.4 161.101 110.5C161.201 110.2 161.201 110 161.301 109.7C162.501 105.3 163.901 100.6 167.001 97.1999C168.201 95.8999 169.701 94.8999 171.501 94.0999C172.901 93.4999 174.501 93.0999 176.001 92.8999C178.001 92.6999 179.901 92.9999 181.601 93.9999C181.701 93.9999 181.801 94.0999 181.901 94.1999C182.101 94.2999 182.201 94.3999 182.401 94.4999C183.201 95.0999 183.901 95.7999 184.701 96.4999C185.301 97.0999 186.001 97.7999 186.601 98.3999C186.701 98.4999 186.701 98.4999 186.801 98.5999C188.901 100.8 190.101 103.9 191.101 106.7C193.001 111.9 194.601 117.9 195.701 124.1C196.001 125.6 196.201 127 196.401 128.5C196.901 131.7 197.201 134.8 197.501 138H189.901Z" fill="#A3A4A3"/>
<path d="M181.401 96.2999C181.701 94.8999 182.001 93.5999 182.401 92.1999C182.701 92.0999 183.001 91.9999 183.201 91.7999C188.301 89.0999 197.901 72.8999 185.101 68.0999C173.501 63.7999 172.801 80.0999 174.601 87.0999C174.901 88.2999 175.301 89.3999 176.101 90.4999C176.601 91.1999 176.701 91.0999 176.601 91.7999C176.501 92.4999 175.701 93.2999 175.401 94.0999C175.201 94.8999 175.201 95.7999 175.601 96.5999C175.901 96.9999 176.301 97.3999 176.701 97.6999C177.401 98.0999 178.201 98.3999 179.001 98.2999C180.001 98.0999 181.201 97.1999 181.401 96.2999Z" fill="#DDDEDD"/>
<path d="M172.2 81.6999C172.8 83.8999 173.6 86.0999 174.7 88.0999C174.9 84.0999 175.7 80.0999 177.1 76.2999C177.2 75.9999 177.3 75.6999 177.2 75.3999C177.1 75.0999 176.8 74.9999 176.5 74.8999C171.6 73.4999 171.3 77.8999 172.2 81.6999Z" fill="#494949"/>
<path d="M184.9 88.7998C185.6 89.9998 187.4 89.7998 188.7 89.2998C194 87.0998 197.4 81.1998 196.8 75.5998C196.2 70.8998 190.6 66.8998 189 72.5998C188.4 74.5998 189.4 77.4998 189 79.7998C188.2 82.9998 186.4 85.9998 184.9 88.7998Z" fill="#494949"/>
<path d="M173.7 63.8999C173.1 64.0999 172.5 64.2999 171.9 64.4999C170.6 64.8999 169.7 64.9999 168.4 64.0999C168 63.8999 165.7 61.2999 166.4 60.8999C162.2 63.7999 165.1 68.7999 166.3 72.2999C167.1 74.5999 167.1 77.7999 169.2 79.4999C171.6 81.2999 173.4 79.3999 175.8 78.6999C177.9 77.9999 180 77.7999 182.1 77.1999C185.6 76.2999 190.7 74.4999 190 69.9999C189.1 64.6999 183.9 62.9999 179.1 62.9999C177 62.9999 175.4 63.3999 173.7 63.8999Z" fill="#494949"/>
<path d="M197.8 138H192.9C192.5 135.5 191.7 131.8 191.6 128.8C191.5 126.6 191.8 124.8 192.7 124.1C194 123.2 195 123.3 195.7 124.1C196.4 124.9 196.9 126.2 197.2 127.9C197.8 130.9 197.9 135 197.8 138Z" fill="#DDDEDD"/>
<path d="M198.501 125.8C197.501 129 194.001 129.9 191.801 128.9C187.201 126.9 183.301 106.1 182.201 102.9C180.801 98.4999 185.801 97.2999 188.501 99.5999C191.801 102.4 194.101 106.5 195.501 110.5C197.101 114.9 197.801 119.5 198.501 124C198.701 124.7 198.701 125.3 198.501 125.8Z" fill="#A3A4A3"/>
<path d="M13.7998 138C13.8998 137.1 13.9998 136.2 14.0998 135.4C14.2998 133.6 14.4998 131.8 14.6998 130.1C14.7998 128.7 14.9998 127.3 15.1998 126C15.5998 122.6 16.1998 119.2 16.7998 115.8C16.8998 115.1 17.0998 114.4 17.1998 113.7C17.5998 111.8 17.9998 109.8 18.5998 107.9C19.4998 105.2 20.5998 104.4 22.8998 102.5C23.6998 101.9 24.3998 101.3 25.1998 100.7C25.9998 100.2 26.7998 99.7001 27.7998 99.3001C27.8998 99.3001 27.9998 99.2001 28.0998 99.2001C28.8998 98.9001 29.6998 98.8001 30.5998 98.6001C30.7998 98.6001 30.8998 98.6001 31.0998 98.5001C32.7998 98.3001 34.9998 98.2001 37.1998 98.3001C38.2998 98.4001 39.3998 98.5001 40.4998 98.8001C42.3998 99.3001 44.0998 100 45.2998 101.1C47.8998 103.6 48.3998 108.7 48.7998 112.5C48.8998 113.1 48.8998 113.6 48.9998 114.1C50.0998 122.1 52 130.1 53.5 138H33.5L18.5 138L13.7998 138Z" fill="#3FD24D"/>
<path d="M31.0999 99.0001C31.1999 99.1001 31.2999 99.3001 31.3999 99.4001C31.8999 99.9001 32.4999 100.1 33.1999 100.2C34.0999 100.3 34.9999 100.2 35.7999 100C36.9999 99.8001 36.8999 99.1001 37.0999 98.0001C37.1999 97.4001 37.1999 96.8001 37.2999 96.3001C37.2999 96.0001 37.1999 94.8001 37.3999 94.6001C37.4999 94.4001 38.0999 94.5001 38.2999 94.4001C38.6999 94.2001 38.9999 93.8001 39.2999 93.5001C39.6999 92.9001 39.8999 92.2001 40.0999 91.6001C40.4999 90.4001 40.7999 89.3001 41.1999 88.1001C41.5999 86.9001 41.8999 85.7001 41.9999 84.5001C42.1999 82.6001 41.8999 80.0001 40.4999 78.6001C39.1999 77.4001 37.2999 76.9001 35.5999 76.7001C33.2999 76.4001 30.9999 76.8001 28.9999 78.0001C28.1999 78.5001 27.4999 79.1001 26.9999 80.0001C26.2999 81.3001 26.2999 83.0001 26.3999 84.6001C26.4999 86.0001 26.4999 87.5001 26.5999 88.9001C26.6999 90.6001 26.8999 92.5001 28.0999 93.4001C28.7999 93.9001 29.5999 94.0001 30.1999 94.6001C30.8999 95.4001 30.8999 96.5001 30.8999 97.5001C30.8999 98.0001 30.8999 98.6001 31.0999 99.0001Z" fill="#A3A4A3"/>
<path d="M38.3001 80.3001C38.4001 80.4001 38.4001 80.6 38.5001 80.7C38.8001 81.5 38.6001 82.3 38.8001 83.1C39.2001 84.3 40.6001 85.1001 40.8001 86.3001C41.0001 87.3001 40.3001 88.3 40.2001 89.4C40.1001 90.5 40.9001 91.6 40.8001 92.8001C40.7001 93.8001 40.1001 95.2 39.5001 96C39.7001 95.8 41.3001 95.8 41.8001 95.6C42.5001 95.2 42.5001 94.9001 42.7001 94.3001C42.9001 93.6 42.7001 93.0001 43.0001 92.3001C43.4001 91.4001 44.1001 90.8 44.4001 89.9C44.8001 88.7 44.1001 87.4 44.2001 86.1C44.3001 84.1 46.0001 82.3 45.4001 80.5C45.0001 79.4 44.0001 78.7 43.4001 77.7C42.9001 77 42.8001 76.1 42.5001 75.3C42.2001 74.5 41.6001 73.7 40.8001 73.4C40.3001 73.3 39.8001 73.3 39.4001 73.2C38.6001 73 37.9001 72.5 37.1001 72.2C36.0001 71.8 34.0001 73 33.3001 73.9C32.6001 74.9 33.0001 75.7 33.6001 76.5C34.7001 77.8 37.4001 78.7001 38.3001 80.3001Z" fill="#2B2C2B"/>
<path d="M23.0998 74.6C22.3998 75.1 21.5998 75.5 20.9998 76C19.7998 77.1 19.5998 78.9 19.4998 80.6C19.4998 82.1 18.7998 83.4 18.9998 84.9C19.0998 85.9 19.4998 87 20.3998 87.6C21.3998 88.4 23.0998 88.5 23.5998 89.7C24.0998 91 22.7998 92.7 23.5998 93.8C24.0998 94.4 24.8998 94.5 25.5998 94.9C26.2998 95.4 26.6998 96.2 27.0998 97C27.4998 97.7 28.1998 98.5 29.0998 98.5C29.0998 97.2 29.1998 96.1 28.5998 94.9C28.2998 94.2 27.2998 92.9 27.9998 92.2C28.4998 91.6 29.5998 91.4 29.5998 90.6C29.5998 90.2 29.3998 89.9 29.1998 89.6C28.3998 88.4 28.2998 86.8 28.8998 85.5C29.3998 84.2 30.4998 83.1 31.7998 82.5C33.2998 81.8 33.0998 81.4 33.4998 80C33.8998 78.7 34.6998 78.4 35.7998 77.9C36.8998 77.5 37.1998 77.2 37.5998 76.2C37.8998 75.5 38.1998 74.6 37.7998 73.8C37.4998 73.1 36.8998 72.7 36.2998 72.2C35.0998 71.3 33.6998 70.3 32.1998 70.4C31.3998 70.5 30.5998 70.9 29.6998 70.9C29.0998 70.9 28.5998 70.8 27.9998 70.8C26.9998 70.8 25.9998 71.1 25.1998 71.6C24.3998 72.2 24.3998 72.8 23.9998 73.6C23.7998 74 23.3998 74.3 23.0998 74.6Z" fill="#2B2C2B"/>
<path d="M26.5 69.2001C26.6 68.3001 26.6 67.1001 25.7 66.8001C25.2 66.6001 24.7 66.8001 24.2 66.7001C23.1 66.5001 22.8 65.2001 22.2 64.3001C22.1 64.2001 22 64.0001 21.9 64.0001C21.7 63.9001 21.4 64.0001 21.2 64.0001C20.1 64.1001 19.3 63.1001 18.3 62.7001C17.1 62.2001 15.5 63.0001 15.1 64.3001C15 64.7001 15 65.3001 14.9 65.8001C14.3 67.9001 11.2 68.8001 11.1 71.0001C11 72.5001 12.5 73.9001 11.9 75.3001C11.5 76.2001 10.4 76.8001 10.5 77.7001C10.6 78.3001 11.2 78.7001 11.8 78.7001C12.4 78.7001 13 78.4001 13.4 78.0001C14.1 77.4001 14.7 76.5001 15.4 75.9001C16.1 75.2001 17 74.7001 18 74.8001C18.9 74.9001 19.8 75.6001 20.7 75.5001C21.4 75.4001 22 74.7001 22.7 74.5001C23.4 74.3001 24.1 74.6001 24.8 74.6001C25.5 74.6001 26.4 74.3001 26.4 73.6001C26.4 73.4001 26.4 73.3001 26.4 73.1001C26.5 72.6001 27.3 72.7001 27.5 72.2001C27.1 71.6001 26.6 71.8001 26.4 71.1001C26.2 70.5001 26.4 69.7001 26.5 69.2001Z" fill="#2B2C2B"/>
<path d="M21.4 120.8C20.9 122.8 19.7 124.5 18.4 126.1C18 126.6 17.5 127.1 17.1 127.6C16.3 128.4 15.5 129.2 14.7 130C14.3 130.3 14 130.7 13.6 131C13.2 131.3 12.8 131.7 12.8 132.2C12.8 132.5 12.9 132.7 13 133C13.4 133.8 13.7 134.6 14.1 135.4C14.5 136.3 15 137.2 15.4 138H9.4C8.4 136.5 7.4 135 6.5 133.4C6.3 133 6 132.7 6 132.3C6 131.9 6.1 131.5 6.2 131.2C7.1 128.2 8.2 125.4 9.5 122.6C9.7 122.2 9.9 121.7 10.1 121.2C11.3 118.2 12.8 114.1 16 113.7C16.4 113.6 16.8 113.6 17.2 113.7C18.3 113.8 19.4 114.3 20.2 115.2C21.6 116.5 21.9 118.8 21.4 120.8Z" fill="#A3A4A3"/>
<path d="M10.7998 121.8C13.0998 123.9 15.2998 126 17.5998 128.1C17.4998 128 27.6998 118.4 28.2998 117.9C30.5998 115.7 32.8998 113.3 33.9998 110.3C36.3998 103.9 29.7998 97.9 23.6998 101.4C17.0998 105.2 11.3998 111.9 8.3998 118.9C8.2998 119.1 8.2998 119.2 8.2998 119.4C8.2998 119.6 8.4998 119.8 8.6998 120C9.3998 120.5 10.0998 121.2 10.7998 121.8Z" fill="#3FD24D"/>
<path d="M58.1997 66.3001C58.0997 66.4001 58.0997 66.5001 57.9997 66.6001C57.6997 67.6001 58.0997 68.3001 58.0997 69.3001C58.0997 69.8001 57.0997 70.4001 57.8997 70.9001C58.1997 71.1001 58.9997 71.5001 59.5997 71.9001C60.4997 72.5001 61.2997 73.8001 61.6997 75.0001C63.2997 79.6001 63.6997 84.4001 63.8997 89.3001C63.8997 89.6001 63.8997 89.9001 63.7997 90.1001C63.5997 90.5001 63.0997 90.7001 62.5997 90.9001C60.3997 91.6001 58.2997 92.5001 56.2997 93.5001C54.4997 94.5001 52.6997 95.6001 51.4997 97.3001C50.2997 98.9001 49.6997 101.2 50.3997 103.1C50.9997 104.5 52.1997 105.7 53.6997 106C57.3997 106.9 60.6997 102.4 63.0997 100.2C65.3997 98.1001 67.4997 95.9001 69.3997 93.5001C69.5997 93.2001 69.8997 92.9001 69.9997 92.5001C70.0997 92.1001 70.0997 91.7001 69.9997 91.3001C69.1997 86.1001 67.9997 81.0001 66.6997 76.0001C66.2997 74.6001 65.2997 73.6001 64.9997 72.3001C64.7997 71.5001 65.1997 70.7001 65.1997 69.9001C65.1997 69.1001 64.8997 68.0001 64.5997 67.3001C63.9997 65.8001 62.3997 65.4001 60.9997 65.0001C60.6997 64.9001 60.3997 64.8001 60.0997 64.9001C59.5997 65.0001 59.1997 65.4001 58.7997 65.7001C58.4997 65.8001 58.2997 66.0001 58.1997 66.3001Z" fill="#A3A4A3"/>
<path d="M61.4998 100.3C60.1998 97.5 58.8998 94.7 57.5998 91.9C57.6998 92.1 44.5998 97 43.7998 97.3C40.8998 98.5 37.7998 99.8 35.6998 102.1C31.0998 107.1 34.8998 115.2 41.7998 114.3C49.3998 113.3 57.1998 109.3 62.5998 103.9C62.6998 103.8 62.7998 103.7 62.8998 103.5C62.9998 103.3 62.8998 103.1 62.7998 102.8C62.2998 102.1 61.8998 101.2 61.4998 100.3Z" fill="#3FD24D"/>
<path d="M113.3 19.4L106.9 29.9L135.1 26L113.3 19.4Z" fill="#007400"/>
<path d="M114.2 29.6L106.9 29.9L112.7 24.9L115 27.2L114.2 29.6Z" fill="#00A600"/>
<path d="M135.101 26L111.701 21.9L109.801 16L135.101 26Z" fill="#3FD24D"/>
<path d="M135.101 26L135.001 26.1L115.101 32.2L112.701 24.9L135.101 26Z" fill="#3FD24D"/>
<path d="M115.101 32.2L135.001 26.1L116.301 35.8L115.101 32.2Z" fill="#00B914"/>
<path d="M103.6 30.2C99.9001 30.9 96.1001 31.5 92.4001 32.2C90.4001 32.5 88.4001 32.9 86.8001 34.2C84.1001 36.3 83.4001 40.3 80.4001 42C76.0001 44.6 69.9001 40.2 65.3001 42.6C62.4001 44.1 61.4001 47.7 59.2001 50.2C55.3001 54.5 47.9001 55.1999 45.7001 60.5999C44.6001 63.2999 45.2001 66.4999 44.1001 69.0999" stroke="#3FD24D" stroke-miterlimit="10" stroke-linecap="round" stroke-dasharray="3 3"/>
</svg>
