<svg width="40" height="40" viewBox="0 0 40 40" fill="none" xmlns="http://www.w3.org/2000/svg">
<g clip-path="url(#clip0_213_26611)">
<path opacity="0.6" d="M33.3337 6.6665H6.66699V28.6165L8.61699 26.6665H33.3337V6.6665ZM23.3337 23.3332H10.0003V19.9998H23.3337V23.3332ZM30.0003 18.3332H10.0003V14.9998H30.0003V18.3332ZM30.0003 13.3332H10.0003V9.99984H30.0003V13.3332Z" fill="#00B914"/>
<path d="M33.333 30.0002C35.1663 30.0002 36.6663 28.5002 36.6663 26.6668V6.66683C36.6663 4.8335 35.1663 3.3335 33.333 3.3335H6.66634C4.83301 3.3335 3.34967 4.8335 3.34967 6.66683L3.33301 36.6668L9.99967 30.0002H33.333ZM6.66634 28.6168V6.66683H33.333V26.6668H8.61634L6.66634 28.6168ZM9.99967 20.0002H23.333V23.3335H9.99967V20.0002ZM9.99967 15.0002H29.9997V18.3335H9.99967V15.0002ZM9.99967 10.0002H29.9997V13.3335H9.99967V10.0002Z" fill="#090A09"/>
</g>
<defs>
<clipPath id="clip0_213_26611">
<rect width="40" height="40" fill="white"/>
</clipPath>
</defs>
</svg>
