<svg width="96" height="96" viewBox="0 0 96 96" fill="none" xmlns="http://www.w3.org/2000/svg">
<path d="M90.0002 36.3V86.7C90.0002 88.5 88.5002 90 86.7002 90H36.0002C34.2002 90 32.7002 88.5 32.7002 86.7V36.3C32.7002 34.5 34.2002 33 36.0002 33H86.4002C88.5002 33 90.0002 34.5 90.0002 36.3Z" fill="#B1F1A8"/>
<path d="M86.4004 91.8002H36.0004C33.3004 91.8002 30.9004 89.4002 30.9004 86.7002V36.3002C30.9004 33.6002 33.3004 31.2002 36.0004 31.2002H86.4004C89.1004 31.2002 91.5004 33.6002 91.5004 36.3002V86.7002C91.5004 89.4002 89.4004 91.8002 86.4004 91.8002ZM36.0004 34.5002C35.1004 34.5002 34.2004 35.4002 34.2004 36.3002V86.7002C34.2004 87.6002 35.1004 88.5002 36.0004 88.5002H86.4004C87.3004 88.5002 88.2004 87.6002 88.2004 86.7002V36.3002C88.2004 35.4002 87.3004 34.5002 86.4004 34.5002H36.0004Z" fill="#494949"/>
<path d="M76.5 22.8V73.2C76.5 75 75 76.5 73.2 76.5H22.8C21 76.5 19.5 75 19.5 73.2V22.8C19.5 21 21 19.5 22.8 19.5H73.2C75 19.5 76.5 21 76.5 22.8Z" fill="#FFF27D"/>
<path d="M73.2002 78.3002H22.8002C20.1002 78.3002 17.7002 75.9002 17.7002 73.2002V22.8002C17.7002 20.1002 20.1002 17.7002 22.8002 17.7002H73.2002C75.9002 17.7002 78.3002 20.1002 78.3002 22.8002V73.2002C78.0002 75.9002 75.9002 78.3002 73.2002 78.3002ZM22.8002 21.0002C21.9002 21.0002 21.0002 21.9002 21.0002 22.8002V73.2002C21.0002 74.1002 21.9002 75.0002 22.8002 75.0002H73.2002C74.1002 75.0002 75.0002 74.1002 75.0002 73.2002V22.8002C75.0002 21.9002 74.1002 21.0002 73.2002 21.0002H22.8002Z" fill="#494949"/>
<path d="M63 9.30001V59.7C63 61.5 61.5 63 59.7 63H9.3C7.5 63 6 61.5 6 59.7V9.30001C6 7.50001 7.5 6 9.3 6H59.7C61.5 6 63 7.50001 63 9.30001Z" fill="white"/>
<path d="M59.7002 64.8002H9.3002C6.6002 64.8002 4.2002 62.4002 4.2002 59.7002V9.3002C4.2002 6.6002 6.6002 4.2002 9.3002 4.2002H59.7002C62.4002 4.2002 64.8002 6.6002 64.8002 9.3002V59.7002C64.8002 62.7002 62.4002 64.8002 59.7002 64.8002ZM9.3002 7.8002C8.4002 7.8002 7.5002 8.70019 7.5002 9.60019V60.0002C7.5002 60.9002 8.4002 61.8002 9.3002 61.8002H59.7002C60.6002 61.8002 61.5002 60.9002 61.5002 60.0002V9.3002C61.5002 8.4002 60.6002 7.50019 59.7002 7.50019H9.3002V7.8002Z" fill="#494949"/>
</svg>
