<svg width="32" height="32" viewBox="0 0 32 32" fill="none" xmlns="http://www.w3.org/2000/svg">
<path d="M19.4 6.7998H15.5V10.6998H19.4V6.7998Z" fill="#FF9797"/>
<path d="M23.3004 7.7998H19.4004V9.69981V11.6998H23.3004L21.8004 9.69981L23.3004 7.7998Z" fill="#FF9797"/>
<path d="M19.4 11.1998H15.5C15.2 11.1998 15 10.9998 15 10.6998V6.7998C15 6.4998 15.2 6.2998 15.5 6.2998H19.4C19.7 6.2998 19.9 6.4998 19.9 6.7998V10.6998C19.9 10.9998 19.7 11.1998 19.4 11.1998ZM16 10.1998H18.9V7.2998H16V10.1998Z" fill="#494949"/>
<path d="M15.5 19.5999C15.2 19.5999 15 19.3999 15 19.0999V5.8999C15 5.5999 15.2 5.3999 15.5 5.3999C15.8 5.3999 16 5.5999 16 5.8999V19.1999C16 19.3999 15.8 19.5999 15.5 19.5999Z" fill="#494949"/>
<path d="M23.3004 12.1H19.4004C19.1004 12.1 18.9004 11.9 18.9004 11.6V7.69995C18.9004 7.39995 19.1004 7.19995 19.4004 7.19995H23.3004C23.5004 7.19995 23.6004 7.29995 23.7004 7.49995C23.8004 7.69995 23.8004 7.89995 23.7004 7.99995L22.5004 9.59995L23.7004 11.2C23.8004 11.3 23.8004 11.5 23.7004 11.7C23.6004 11.9 23.5004 12.1 23.3004 12.1ZM19.9004 11.2H22.3004L21.4004 9.99995C21.3004 9.79995 21.3004 9.59995 21.4004 9.39995L22.3004 8.19995H19.9004V11.2Z" fill="#494949"/>
<path d="M10.6004 22.9L5.90039 30H25.2004L20.1004 22.3L15.5004 15.5L10.6004 22.9Z" fill="#CED8EE"/>
<path d="M15.5006 15.5L20.1006 22.3L20.0006 22.4L17.3006 21.9L15.6006 23.2L13.7006 21.9L10.6006 22.9L15.5006 15.5Z" fill="white"/>
<path d="M10.1 23.6998L8.3 21.2998L2 29.9998H5.9L10.1 23.6998Z" fill="#9EB2CC"/>
<path d="M25.2006 29.9998H30.0006L24.2006 22.7998L22.1006 25.3998L25.2006 29.9998Z" fill="#9EB2CC"/>
<path d="M26.1 30.5H5L15.5 14.7L26.1 30.5ZM6.8 29.5H24.3L15.5 16.4L11 23.2L6.8 29.5Z" fill="#494949"/>
<path d="M15.6 23.9L13.6 22.4L10.8 23.4L10.5 22.5001L13.8 21.3L15.6 22.6001L17.2 21.4L20.1 21.9L19.9 22.8L17.4 22.4L15.6 23.9Z" fill="#494949"/>
<path d="M5.90039 30.4999H2.00039C1.80039 30.4999 1.70039 30.3999 1.60039 30.1999C1.50039 29.9999 1.50039 29.7999 1.60039 29.6999L7.90039 20.9999C8.10039 20.6999 8.50039 20.6999 8.70039 20.9999L10.5004 23.3999C10.7004 23.5999 10.6004 23.8999 10.4004 24.0999C10.2004 24.2999 9.90039 24.1999 9.70039 23.9999L8.30039 22.0999L3.00039 29.4999H5.90039C6.20039 29.4999 6.40039 29.6999 6.40039 29.9999C6.40039 30.2999 6.20039 30.4999 5.90039 30.4999Z" fill="#494949"/>
<path d="M30.0005 30.4999H25.2004C24.9004 30.4999 24.7004 30.2999 24.7004 29.9999C24.7004 29.6999 24.9004 29.4999 25.2004 29.4999H29.0005L24.2004 23.4999L22.5005 25.6999C22.3005 25.8999 22.0005 25.8998 21.8005 25.7998C21.6005 25.5998 21.6004 25.2999 21.7004 25.0999L23.8005 22.4999C24.0005 22.2999 24.4005 22.2999 24.6005 22.4999L30.4005 29.6999C30.5005 29.7999 30.5005 29.9999 30.5005 30.1999C30.4005 30.3999 30.2005 30.4999 30.0005 30.4999Z" fill="#494949"/>
</svg>
