<svg width="32" height="32" viewBox="0 0 32 32" fill="none" xmlns="http://www.w3.org/2000/svg">
<path d="M6.29999 11.2001C3.59999 11.2001 1.5 9.0001 1.5 6.4001C1.5 3.8001 3.69999 1.6001 6.29999 1.6001C8.89999 1.6001 11.1 3.8001 11.1 6.4001C11.1 9.0001 8.89999 11.2001 6.29999 11.2001ZM6.29999 2.6001C4.19999 2.6001 2.5 4.3001 2.5 6.4001C2.5 8.5001 4.19999 10.2001 6.29999 10.2001C8.39999 10.2001 10.1 8.5001 10.1 6.4001C10.1 4.3001 8.29999 2.6001 6.29999 2.6001Z" fill="#494949"/>
<path d="M5.2002 30.5001C4.9002 30.5001 4.7002 30.3001 4.7002 30.0001C4.7002 17.3001 15.1002 6.90015 27.8002 6.90015C28.1002 6.90015 28.3002 7.10015 28.3002 7.40015C28.3002 7.70015 28.1002 7.90015 27.8002 7.90015C15.6002 7.90015 5.80019 17.8001 5.80019 29.9001C5.70019 30.3001 5.5002 30.5001 5.2002 30.5001Z" fill="#494949"/>
<path d="M25.5998 12.3002C25.4998 12.3002 25.2998 12.2002 25.1998 12.1002C24.9998 11.9002 24.9998 11.5002 25.1998 11.3002L29.1998 7.40019L25.1998 3.40019C24.9998 3.20019 24.9998 2.8002 25.1998 2.6002C25.3998 2.4002 25.7998 2.4002 25.9998 2.6002L30.2998 6.90019C30.3998 7.00019 30.4998 7.10019 30.4998 7.30019C30.4998 7.40019 30.3998 7.60019 30.2998 7.70019L25.9998 12.0002C25.8998 12.2002 25.6998 12.3002 25.5998 12.3002Z" fill="#494949"/>
<path d="M18.5998 27.9001C18.4998 27.9001 18.2998 27.8001 18.1998 27.7001C17.9998 27.5001 17.9998 27.1001 18.1998 26.9001L26.7998 18.3001C26.9998 18.1001 27.3998 18.1001 27.5998 18.3001C27.7998 18.5001 27.7998 18.9001 27.5998 19.1001L18.9998 27.7001C18.8998 27.8001 18.7998 27.9001 18.5998 27.9001Z" fill="#494949"/>
<path d="M27.3004 27.9001C27.2004 27.9001 27.0004 27.8001 26.9004 27.7001L18.3004 19.1001C18.1004 18.9001 18.1004 18.5001 18.3004 18.3001C18.5004 18.1001 18.9004 18.1001 19.1004 18.3001L27.7004 26.9001C27.9004 27.1001 27.9004 27.5001 27.7004 27.7001C27.5004 27.8001 27.4004 27.9001 27.3004 27.9001Z" fill="#494949"/>
<path d="M29.9998 8H27.7998C27.4998 8 27.2998 7.7 27.2998 7.5C27.2998 7.2 27.4998 7 27.7998 7H29.9998C30.2998 7 30.4998 7.3 30.4998 7.5C30.4998 7.8 30.1998 8 29.9998 8Z" fill="#494949"/>
</svg>
