<svg width="96" height="96" viewBox="0 0 96 96" fill="none" xmlns="http://www.w3.org/2000/svg">
<path d="M80.9998 18.3004C62.0998 2.10039 34.1998 2.10039 15.2998 18.3004V46.5004C15.2998 58.2004 20.6998 69.3004 29.9998 76.2004L47.9998 90.0004L65.9998 76.2004C75.2998 69.0004 80.6998 58.2004 80.6998 46.5004V18.3004H80.9998Z" fill="#EEF6FF"/>
<path d="M47.9994 12.3003C57.5994 12.3003 66.8994 15.3003 74.6994 21.3003V46.5003C74.6994 56.1003 70.1994 65.4003 62.3994 71.4003L48.2994 82.2003L34.1994 71.4003C26.3994 65.4003 21.8994 56.1003 21.8994 46.5003V21.3003C29.0994 15.3003 38.3994 12.3003 47.9994 12.3003Z" fill="#B1F1A8"/>
<path d="M47.9998 91.5002C47.6998 91.5002 47.3998 91.5002 47.0998 91.2002L29.0998 77.4002C19.4998 70.2002 13.7998 58.5002 13.7998 46.2002V18.0002C13.7998 17.4002 14.0998 17.1002 14.3998 16.8002C33.8998 0.000195503 62.3998 0.000195503 81.8998 16.8002C82.1998 17.1002 82.4998 17.4002 82.4998 18.0002V46.2002C82.4998 58.2002 76.7998 69.9002 67.1998 77.4002L49.1998 91.2002C48.5998 91.5002 48.2998 91.5002 47.9998 91.5002ZM16.7998 18.9002V46.5002C16.7998 57.6002 22.1998 68.4002 30.8998 75.0002L47.9998 87.9002L65.0998 75.0002C74.0998 68.1002 79.1998 57.6002 79.1998 46.5002V18.9002C61.1998 3.60019 35.0998 3.60019 16.7998 18.9002Z" fill="#494949"/>
<path d="M47.9998 83.7003C47.6998 83.7003 47.3998 83.7003 47.0998 83.4003L32.6998 72.6003C24.5998 66.3003 19.7998 56.7003 19.7998 46.5003V21.3003C19.7998 20.7003 20.0998 20.4003 20.3998 20.1003C28.1998 14.1003 38.0998 10.8003 47.9998 10.8003C57.8998 10.8003 67.4998 14.1003 75.5998 20.1003C75.8998 20.4003 76.1998 21.0003 76.1998 21.3003V46.5003C76.1998 56.7003 71.3998 66.3003 63.2998 72.6003L48.8998 83.4003C48.5998 83.7003 48.2998 83.7003 47.9998 83.7003ZM23.0998 21.9003V46.5003C23.0998 55.8003 27.5998 64.5003 34.7998 70.2003L47.9998 80.4003L61.1998 70.2003C68.3998 64.5003 72.8998 55.8003 72.8998 46.5003V21.9003C65.6998 16.8003 56.6998 13.8003 47.9998 13.8003C39.2998 13.8003 30.2998 16.8003 23.0998 21.9003Z" fill="#494949"/>
</svg>
