<svg width="204" height="139" viewBox="0 0 204 139" fill="none" xmlns="http://www.w3.org/2000/svg">
<path d="M0.5 6C0.5 2.96243 2.96243 0.5 6 0.5H198C201.038 0.5 203.5 2.96243 203.5 6V138.5H0.5V6Z" fill="white" stroke="#DDDEDD"/>
<path d="M141.1 64.1C141.2 64.2 141.3 64.3 141.4 64.4C142 65.3 141.8 66.2 142.1 67.3C142.3 67.8 143.5 68.1 142.8 68.9C142.6 69.2 141.8 69.8 141.3 70.5C140.5 71.4 140.1 73.1 140 74.4C139.6 79.8 140.7 85.1 141.9 90.3C142 90.6 142 90.9 142.2 91.1C142.6 91.5 143.2 91.6 143.7 91.6C146.2 91.7 148.8 92 151.3 92.6C153.5 93.1 155.8 93.8 157.5 95.2C159.3 96.6 160.6 98.8 160.4 101.1C160.2 102.8 159.2 104.4 157.7 105.2C154 107.3 149.2 103.5 145.9 101.8C142.9 100.2 139.9 98.5 137.1 96.5C136.8 96.3 136.4 96 136.2 95.6C136 95.2 135.9 94.8 135.8 94.3C135.1 88.5 134.8 82.8 134.7 76.9C134.7 75.3 135.5 73.9 135.4 72.4C135.4 71.5 134.7 70.7 134.4 69.9C134.2 69 134.1 67.8 134.2 66.9C134.4 65.1 136 64.3 137.4 63.3C137.7 63.1 138 62.9 138.3 62.9C138.9 62.8 139.4 63.1 139.9 63.4C140.6 63.7 140.9 63.9 141.1 64.1Z" fill="#DDDEDD"/>
<path d="M145.801 105C142.501 103.2 139.401 101.1 136.801 98.8002C136.201 98.2002 135.501 97.6002 135.201 96.8002C134.901 96.1002 134.801 95.4002 134.801 94.7002C134.401 90.5002 134.101 86.3002 133.701 82.1002C133.601 81.5002 133.601 80.8002 134.101 80.4002C134.401 80.2002 134.801 80.2002 135.201 80.2002C136.901 80.3002 138.501 80.4002 140.201 80.4002C140.501 80.4002 140.801 80.4002 141.101 80.6002C141.301 80.8002 141.401 81.1002 141.501 81.3002C141.901 83.0002 141.301 84.9002 141.801 86.6002C142.301 88.1002 143.601 89.3002 145.101 90.0002C151.201 92.9002 159.301 92.2002 165.901 93.0002C169.401 93.4002 173.001 93.9002 176.001 95.8002C182.401 99.8002 180.801 109.6 173.101 110.6C166.501 111.5 159.701 110.6 153.501 108.3C150.901 107.5 148.301 106.3 145.801 105Z" fill="#A3A4A3"/>
<path d="M189.501 138H179.601C182.801 136.5 186.201 136.3 189.501 138Z" fill="#5B5C5B"/>
<path d="M190.001 138.3C189.801 138.2 189.701 138.1 189.501 138H172.801C178.101 136.6 183.701 135.5 188.901 135.1C189.201 136 189.601 136.9 189.901 138C189.901 138.1 190.001 138.2 190.001 138.3Z" fill="#5B5C5B"/>
<path d="M189.901 138C189.901 138.1 190.001 138.2 190.001 138.3C189.801 138.2 189.701 138.1 189.501 138H156.601C157.101 132.7 157.901 127.4 158.701 122.3C159.301 118.3 160.101 114.4 161.101 110.5C161.201 110.2 161.201 110 161.301 109.7C162.501 105.3 163.901 100.6 167.001 97.1998C168.201 95.8998 169.701 94.8998 171.501 94.0998C172.901 93.4998 174.501 93.0998 176.001 92.8998C178.001 92.6998 179.901 92.9998 181.601 93.9998C181.701 93.9998 181.801 94.0998 181.901 94.1998C182.101 94.2998 182.201 94.3998 182.401 94.4998C183.201 95.0998 183.901 95.7998 184.701 96.4998C185.301 97.0998 186.001 97.7998 186.601 98.3998C186.701 98.4998 186.701 98.4998 186.801 98.5998C188.901 100.8 190.101 103.9 191.101 106.7C193.001 111.9 194.601 117.9 195.701 124.1C196.001 125.6 196.201 127 196.401 128.5C196.901 131.7 197.201 134.8 197.501 138H189.901Z" fill="#A3A4A3"/>
<path d="M181.401 96.2999C181.701 94.8999 182.001 93.5999 182.401 92.1999C182.701 92.0999 183.001 91.9999 183.201 91.7999C188.301 89.0999 197.901 72.8999 185.101 68.0999C173.501 63.7999 172.801 80.0999 174.601 87.0999C174.901 88.2999 175.301 89.3999 176.101 90.4999C176.601 91.1999 176.701 91.0999 176.601 91.7999C176.501 92.4999 175.701 93.2999 175.401 94.0999C175.201 94.8999 175.201 95.7999 175.601 96.5999C175.901 96.9999 176.301 97.3999 176.701 97.6999C177.401 98.0999 178.201 98.3999 179.001 98.2999C180.001 98.0999 181.201 97.1999 181.401 96.2999Z" fill="#DDDEDD"/>
<path d="M172.2 81.6998C172.8 83.8998 173.6 86.0998 174.7 88.0998C174.9 84.0998 175.7 80.0998 177.1 76.2998C177.2 75.9998 177.3 75.6998 177.2 75.3998C177.1 75.0998 176.8 74.9998 176.5 74.8998C171.6 73.4998 171.3 77.8998 172.2 81.6998Z" fill="#494949"/>
<path d="M184.9 88.8001C185.6 90.0001 187.4 89.8001 188.7 89.3001C194 87.1001 197.4 81.2001 196.8 75.6001C196.2 70.9001 190.6 66.9001 189 72.6001C188.4 74.6001 189.4 77.5001 189 79.8001C188.2 83.0001 186.4 86.0001 184.9 88.8001Z" fill="#494949"/>
<path d="M173.7 63.8999C173.1 64.0999 172.5 64.2999 171.9 64.4999C170.6 64.8999 169.7 64.9999 168.4 64.0999C168 63.8999 165.7 61.2999 166.4 60.8999C162.2 63.7999 165.1 68.7999 166.3 72.2999C167.1 74.5999 167.1 77.7999 169.2 79.4999C171.6 81.2999 173.4 79.3999 175.8 78.6999C177.9 77.9999 180 77.7999 182.1 77.1999C185.6 76.2999 190.7 74.4999 190 69.9999C189.1 64.6999 183.9 62.9999 179.1 62.9999C177 62.9999 175.4 63.3999 173.7 63.8999Z" fill="#494949"/>
<path d="M197.8 138H192.9C192.5 135.5 191.7 131.8 191.6 128.8C191.5 126.6 191.8 124.8 192.7 124.1C194 123.2 195 123.3 195.7 124.1C196.4 124.9 196.9 126.2 197.2 127.9C197.8 130.9 197.9 135 197.8 138Z" fill="#DDDEDD"/>
<path d="M198.501 125.8C197.501 129 194.001 129.9 191.801 128.9C187.201 126.9 183.301 106.1 182.201 102.9C180.801 98.5 185.801 97.3 188.501 99.6C191.801 102.4 194.101 106.5 195.501 110.5C197.101 114.9 197.801 119.5 198.501 124C198.701 124.7 198.701 125.3 198.501 125.8Z" fill="#A3A4A3"/>
<path d="M13.7998 138C13.8998 137.1 13.9998 136.2 14.0998 135.4C14.2998 133.6 14.4998 131.8 14.6998 130.1C14.7998 128.7 14.9998 127.3 15.1998 126C15.5998 122.6 16.1998 119.2 16.7998 115.8C16.8998 115.1 17.0998 114.4 17.1998 113.7C17.5998 111.8 17.9998 109.8 18.5998 107.9C19.4998 105.2 20.5998 104.4 22.8998 102.5C23.6998 101.9 24.3998 101.3 25.1998 100.7C25.9998 100.2 26.7998 99.7005 27.7998 99.3005C27.8998 99.3005 27.9998 99.2005 28.0998 99.2005C28.8998 98.9005 29.6998 98.8005 30.5998 98.6005C30.7998 98.6005 30.8998 98.6005 31.0998 98.5005C32.7998 98.3005 34.9998 98.2005 37.1998 98.3005C38.2998 98.4005 39.3998 98.5005 40.4998 98.8005C42.3998 99.3005 44.0998 100 45.2998 101.1C47.8998 103.6 48.3998 108.7 48.7998 112.5C48.8998 113.1 48.8998 113.6 48.9998 114.1C50.0998 122.1 52 130.1 53.5 138H33.5L18.5 138L13.7998 138Z" fill="#3FD24D"/>
<path d="M31.0999 99.0004C31.1999 99.1004 31.2999 99.3004 31.3999 99.4004C31.8999 99.9004 32.4999 100.1 33.1999 100.2C34.0999 100.3 34.9999 100.2 35.7999 100C36.9999 99.8004 36.8999 99.1004 37.0999 98.0004C37.1999 97.4004 37.1999 96.8004 37.2999 96.3004C37.2999 96.0005 37.1999 94.8004 37.3999 94.6004C37.4999 94.4004 38.0999 94.5004 38.2999 94.4004C38.6999 94.2004 38.9999 93.8004 39.2999 93.5004C39.6999 92.9004 39.8999 92.2004 40.0999 91.6004C40.4999 90.4004 40.7999 89.3004 41.1999 88.1004C41.5999 86.9004 41.8999 85.7004 41.9999 84.5004C42.1999 82.6004 41.8999 80.0004 40.4999 78.6004C39.1999 77.4004 37.2999 76.9004 35.5999 76.7004C33.2999 76.4004 30.9999 76.8004 28.9999 78.0004C28.1999 78.5004 27.4999 79.1004 26.9999 80.0004C26.2999 81.3004 26.2999 83.0004 26.3999 84.6004C26.4999 86.0004 26.4999 87.5004 26.5999 88.9004C26.6999 90.6004 26.8999 92.5004 28.0999 93.4004C28.7999 93.9004 29.5999 94.0004 30.1999 94.6004C30.8999 95.4004 30.8999 96.5004 30.8999 97.5004C30.8999 98.0004 30.8999 98.6004 31.0999 99.0004Z" fill="#A3A4A3"/>
<path d="M38.2996 80.3003C38.3996 80.4003 38.3996 80.6003 38.4996 80.7003C38.7996 81.5003 38.5996 82.3003 38.7996 83.1003C39.1996 84.3003 40.5996 85.1003 40.7996 86.3003C40.9996 87.3003 40.2996 88.3003 40.1996 89.4003C40.0996 90.5003 40.8996 91.6003 40.7996 92.8003C40.6996 93.8003 40.0996 95.2003 39.4996 96.0003C39.6996 95.8003 41.2996 95.8003 41.7996 95.6003C42.4996 95.2003 42.4996 94.9003 42.6996 94.3003C42.8996 93.6003 42.6996 93.0003 42.9996 92.3003C43.3996 91.4003 44.0996 90.8003 44.3996 89.9003C44.7996 88.7003 44.0996 87.4003 44.1996 86.1003C44.2996 84.1003 45.9996 82.3003 45.3996 80.5003C44.9996 79.4003 43.9996 78.7003 43.3996 77.7003C42.8996 77.0003 42.7996 76.1003 42.4996 75.3003C42.1996 74.5003 41.5996 73.7003 40.7996 73.4003C40.2996 73.3003 39.7996 73.3003 39.3996 73.2003C38.5996 73.0003 37.8996 72.5003 37.0996 72.2003C35.9996 71.8003 33.9996 73.0003 33.2996 73.9003C32.5996 74.9003 32.9996 75.7003 33.5996 76.5003C34.6996 77.8003 37.3996 78.7003 38.2996 80.3003Z" fill="#2B2C2B"/>
<path d="M23.0998 74.6005C22.3998 75.1005 21.5998 75.5005 20.9998 76.0005C19.7998 77.1005 19.5998 78.9005 19.4998 80.6005C19.4998 82.1005 18.7998 83.4005 18.9998 84.9005C19.0998 85.9005 19.4998 87.0005 20.3998 87.6005C21.3998 88.4005 23.0998 88.5005 23.5998 89.7005C24.0998 91.0005 22.7998 92.7005 23.5998 93.8005C24.0998 94.4005 24.8998 94.5005 25.5998 94.9005C26.2998 95.4005 26.6998 96.2005 27.0998 97.0005C27.4998 97.7005 28.1998 98.5005 29.0998 98.5005C29.0998 97.2005 29.1998 96.1005 28.5998 94.9005C28.2998 94.2005 27.2998 92.9005 27.9998 92.2005C28.4998 91.6005 29.5998 91.4005 29.5998 90.6005C29.5998 90.2005 29.3998 89.9005 29.1998 89.6005C28.3998 88.4005 28.2998 86.8005 28.8998 85.5005C29.3998 84.2005 30.4998 83.1005 31.7998 82.5005C33.2998 81.8005 33.0998 81.4005 33.4998 80.0005C33.8998 78.7005 34.6998 78.4005 35.7998 77.9005C36.8998 77.5005 37.1998 77.2005 37.5998 76.2005C37.8998 75.5005 38.1998 74.6005 37.7998 73.8005C37.4998 73.1005 36.8998 72.7005 36.2998 72.2005C35.0998 71.3005 33.6998 70.3005 32.1998 70.4005C31.3998 70.5005 30.5998 70.9005 29.6998 70.9005C29.0998 70.9005 28.5998 70.8005 27.9998 70.8005C26.9998 70.8005 25.9998 71.1005 25.1998 71.6005C24.3998 72.2005 24.3998 72.8005 23.9998 73.6005C23.7998 74.0005 23.3998 74.3005 23.0998 74.6005Z" fill="#2B2C2B"/>
<path d="M26.4996 69.2003C26.5996 68.3003 26.5996 67.1003 25.6996 66.8003C25.1996 66.6003 24.6996 66.8003 24.1996 66.7003C23.0996 66.5003 22.7996 65.2003 22.1996 64.3003C22.0996 64.2003 21.9996 64.0003 21.8996 64.0003C21.6996 63.9003 21.3996 64.0003 21.1996 64.0003C20.0996 64.1003 19.2996 63.1003 18.2996 62.7003C17.0996 62.2003 15.4996 63.0003 15.0996 64.3003C14.9996 64.7003 14.9996 65.3003 14.8996 65.8003C14.2996 67.9003 11.1996 68.8003 11.0996 71.0003C10.9996 72.5003 12.4996 73.9003 11.8996 75.3003C11.4996 76.2003 10.3996 76.8003 10.4996 77.7003C10.5996 78.3003 11.1996 78.7003 11.7996 78.7003C12.3996 78.7003 12.9996 78.4003 13.3996 78.0003C14.0996 77.4003 14.6996 76.5003 15.3996 75.9003C16.0996 75.2003 16.9996 74.7003 17.9996 74.8003C18.8996 74.9003 19.7996 75.6003 20.6996 75.5003C21.3996 75.4003 21.9996 74.7003 22.6996 74.5003C23.3996 74.3003 24.0996 74.6003 24.7996 74.6003C25.4996 74.6003 26.3996 74.3003 26.3996 73.6003C26.3996 73.4003 26.3996 73.3003 26.3996 73.1003C26.4996 72.6003 27.2996 72.7003 27.4996 72.2003C27.0996 71.6003 26.5996 71.8003 26.3996 71.1003C26.1996 70.5003 26.3996 69.7003 26.4996 69.2003Z" fill="#2B2C2B"/>
<path d="M21.4 120.8C20.9 122.8 19.7 124.5 18.4 126.1C18 126.6 17.5 127.1 17.1 127.6C16.3 128.4 15.5 129.2 14.7 130C14.3 130.3 14 130.7 13.6 131C13.2 131.3 12.8 131.7 12.8 132.2C12.8 132.5 12.9 132.7 13 133C13.4 133.8 13.7 134.6 14.1 135.4C14.5 136.3 15 137.2 15.4 138H9.4C8.4 136.5 7.4 135 6.5 133.4C6.3 133 6 132.7 6 132.3C6 131.9 6.1 131.5 6.2 131.2C7.1 128.2 8.2 125.4 9.5 122.6C9.7 122.2 9.9 121.7 10.1 121.2C11.3 118.2 12.8 114.1 16 113.7C16.4 113.6 16.8 113.6 17.2 113.7C18.3 113.8 19.4 114.3 20.2 115.2C21.6 116.5 21.9 118.8 21.4 120.8Z" fill="#A3A4A3"/>
<path d="M10.7998 121.8C13.0998 123.9 15.2998 126 17.5998 128.1C17.4998 128 27.6998 118.4 28.2998 117.9C30.5998 115.7 32.8998 113.3 33.9998 110.3C36.3998 103.9 29.7998 97.9004 23.6998 101.4C17.0998 105.2 11.3998 111.9 8.3998 118.9C8.2998 119.1 8.2998 119.2 8.2998 119.4C8.2998 119.6 8.4998 119.8 8.6998 120C9.3998 120.5 10.0998 121.2 10.7998 121.8Z" fill="#3FD24D"/>
<path d="M58.1997 66.3003C58.0997 66.4003 58.0997 66.5003 57.9997 66.6003C57.6997 67.6003 58.0997 68.3003 58.0997 69.3003C58.0997 69.8003 57.0997 70.4003 57.8997 70.9003C58.1997 71.1003 58.9997 71.5003 59.5997 71.9003C60.4997 72.5003 61.2997 73.8003 61.6997 75.0003C63.2997 79.6003 63.6997 84.4003 63.8997 89.3003C63.8997 89.6003 63.8997 89.9003 63.7997 90.1003C63.5997 90.5003 63.0997 90.7003 62.5997 90.9003C60.3997 91.6003 58.2997 92.5003 56.2997 93.5003C54.4997 94.5003 52.6997 95.6003 51.4997 97.3003C50.2997 98.9003 49.6997 101.2 50.3997 103.1C50.9997 104.5 52.1997 105.7 53.6997 106C57.3997 106.9 60.6997 102.4 63.0997 100.2C65.3997 98.1003 67.4997 95.9003 69.3997 93.5003C69.5997 93.2003 69.8997 92.9003 69.9997 92.5003C70.0997 92.1003 70.0997 91.7003 69.9997 91.3003C69.1997 86.1003 67.9997 81.0003 66.6997 76.0003C66.2997 74.6003 65.2997 73.6003 64.9997 72.3003C64.7997 71.5003 65.1997 70.7003 65.1997 69.9003C65.1997 69.1003 64.8997 68.0003 64.5997 67.3003C63.9997 65.8003 62.3997 65.4003 60.9997 65.0003C60.6997 64.9003 60.3997 64.8003 60.0997 64.9003C59.5997 65.0003 59.1997 65.4003 58.7997 65.7003C58.4997 65.8003 58.2997 66.0003 58.1997 66.3003Z" fill="#A3A4A3"/>
<path d="M61.4998 100.3C60.1998 97.5004 58.8998 94.7004 57.5998 91.9004C57.6998 92.1004 44.5998 97.0004 43.7998 97.3004C40.8998 98.5004 37.7998 99.8004 35.6998 102.1C31.0998 107.1 34.8998 115.2 41.7998 114.3C49.3998 113.3 57.1998 109.3 62.5998 103.9C62.6998 103.8 62.7998 103.7 62.8998 103.5C62.9998 103.3 62.8998 103.1 62.7998 102.8C62.2998 102.1 61.8998 101.2 61.4998 100.3Z" fill="#3FD24D"/>
<path d="M113.3 19.3999L106.9 29.8999L135.1 25.9999L113.3 19.3999Z" fill="#007400"/>
<path d="M114.2 29.5999L106.9 29.8999L112.7 24.8999L115 27.1999L114.2 29.5999Z" fill="#00A600"/>
<path d="M135.101 26L111.701 21.9L109.801 16L135.101 26Z" fill="#3FD24D"/>
<path d="M135.101 25.9999L135.001 26.0999L115.101 32.1999L112.701 24.8999L135.101 25.9999Z" fill="#3FD24D"/>
<path d="M115.101 32.2001L135.001 26.1001L116.301 35.8001L115.101 32.2001Z" fill="#00B914"/>
<path d="M103.6 30.2002C99.8996 30.9002 96.0996 31.5002 92.3996 32.2002C90.3996 32.5002 88.3996 32.9002 86.7996 34.2002C84.0996 36.3002 83.3996 40.3002 80.3996 42.0002C75.9996 44.6002 69.8996 40.2002 65.2996 42.6002C62.3996 44.1002 61.3996 47.7002 59.1996 50.2002C55.2996 54.5002 47.8996 55.2002 45.6996 60.6002C44.5996 63.3002 45.1996 66.5002 44.0996 69.1002" stroke="#3FD24D" stroke-miterlimit="10" stroke-linecap="round" stroke-dasharray="3 3"/>
</svg>
