<svg width="96" height="96" viewBox="0 0 96 96" fill="none" xmlns="http://www.w3.org/2000/svg">
<path d="M21.6002 77.7H74.1002C82.8002 77.7 90.0002 70.5 90.0002 61.8V33.9C90.0002 25.2 82.8002 18 74.1002 18H21.6002C12.9002 18 5.7002 25.2 5.7002 33.9V61.8C6.0002 70.5 12.9002 77.7 21.6002 77.7Z" fill="#89DBBA"/>
<path d="M74.1002 79.4998H21.6002C12.0002 79.4998 4.2002 71.6998 4.2002 62.0998V34.1998C4.2002 24.5998 12.0002 16.7998 21.6002 16.7998H74.1002C83.7002 16.7998 91.5002 24.5998 91.5002 34.1998V62.0998C91.5002 71.6998 83.7002 79.4998 74.1002 79.4998ZM21.6002 19.7998C13.8002 19.7998 7.50019 26.0998 7.50019 33.8998V61.7998C7.50019 69.5998 13.8002 75.8998 21.6002 75.8998H74.1002C81.9002 75.8998 88.2002 69.5998 88.2002 61.7998V33.8998C88.2002 26.0998 81.9002 19.7998 74.1002 19.7998H21.6002Z" fill="#494949"/>
<path d="M72.3002 42.5999C71.4002 42.5999 70.5002 41.6999 70.5002 40.7999C70.5002 38.9999 69.0002 37.4999 66.9002 37.4999C64.8002 37.4999 63.3002 38.9999 63.3002 40.7999C63.3002 41.6999 62.4002 42.5999 61.5002 42.5999C60.6002 42.5999 59.7002 41.6999 59.7002 40.7999C59.7002 36.8999 62.7002 33.8999 66.6002 33.8999C70.5002 33.8999 73.5002 36.8999 73.5002 40.7999C74.1002 41.9999 73.2002 42.5999 72.3002 42.5999Z" fill="#494949"/>
<path d="M33.8998 42.5999C32.9998 42.5999 32.0998 41.6999 32.0998 40.7999C32.0998 38.9999 30.5998 37.4999 28.4998 37.4999C26.3998 37.4999 24.8998 38.9999 24.8998 40.7999C24.8998 41.6999 23.9998 42.5999 23.0998 42.5999C22.1998 42.5999 21.2998 41.6999 21.2998 40.7999C21.2998 36.8999 24.2998 33.8999 28.1998 33.8999C32.0998 33.8999 35.0998 36.8999 35.0998 40.7999C35.6998 41.9999 34.7998 42.5999 33.8998 42.5999Z" fill="#494949"/>
<path d="M47.9998 65.3999C42.8998 65.3999 38.3998 62.3999 36.5998 57.5999C36.2998 56.6999 36.5998 55.7999 37.4998 55.1999C38.3998 54.8999 39.2998 55.1999 39.8998 56.0999C41.3998 59.3999 44.3998 61.7999 47.9998 61.7999C51.5998 61.7999 54.8998 59.6999 56.0998 56.0999C56.3998 55.1999 57.5998 54.8999 58.4998 55.1999C59.3998 55.4999 59.6998 56.6999 59.3998 57.5999C57.2998 62.3999 52.7998 65.3999 47.9998 65.3999Z" fill="#494949"/>
</svg>
