<svg width="96" height="96" viewBox="0 0 96 96" fill="none" xmlns="http://www.w3.org/2000/svg">
<path d="M65.3996 52.2002H30.5996C29.0996 52.2002 27.5996 53.4002 27.5996 55.2002C27.5996 56.7002 28.7996 58.2002 30.5996 58.2002H35.3996L44.3996 87.3002C44.9996 88.8002 46.4996 90.0002 48.2996 90.0002C50.0996 90.0002 51.5996 88.8002 52.1996 87.3002L61.1996 58.2002H65.9996C67.4996 58.2002 68.9996 57.0002 68.9996 55.2002C68.0996 53.4002 66.8996 52.2002 65.3996 52.2002Z" fill="#CED8EE"/>
<path d="M60.8997 52.2003C63.8997 49.5003 66.5997 46.2003 67.7997 39.9003C69.2997 32.4003 66.8997 22.8003 59.3997 15.3003C61.7997 27.0003 55.4997 22.5003 55.4997 31.5003C56.9997 19.5003 45.2997 17.1003 51.2997 6.30029C42.2997 10.8003 43.1997 17.1003 43.7997 26.1003C41.9997 25.2003 35.9997 22.8003 37.7997 12.0003C31.1997 19.2003 33.8997 27.9003 37.7997 34.5003C34.7997 34.5003 30.5997 31.2003 29.0997 25.2003C27.5997 28.8003 26.9997 33.6003 28.4997 40.2003C29.9997 46.5003 32.3997 49.2003 34.7997 52.5003H60.8997V52.2003Z" fill="#FF9797"/>
<path d="M43.5003 51.3003L43.2002 51.0003C41.1002 48.3003 39.6003 43.5003 42.0003 40.5003C41.7003 41.4003 42.9003 44.1003 44.1003 45.0003C43.8003 44.1003 43.5003 43.5003 43.5003 42.3003C43.8003 38.7003 46.8003 35.7003 46.5003 34.8003C48.0003 35.4003 49.8003 36.3003 51.0003 37.8003C51.9003 39.0003 51.9003 38.7003 51.9003 40.2003C51.9003 40.8003 51.9003 41.1003 51.6003 41.7003C51.9003 41.1003 54.3003 43.2003 54.9003 45.6003C55.5003 48.0003 53.1003 50.7003 52.5003 51.3003V51.6003C49.5003 52.5003 46.8003 52.5003 43.5003 51.3003Z" fill="#FFFAD1"/>
<path d="M34.7999 53.7001C34.4999 53.7001 33.8999 53.4001 33.5999 53.1001L32.9999 52.2001C30.5999 49.2001 28.4999 46.2001 26.9999 40.2001C25.1999 33.0001 26.3999 27.6001 27.5999 24.3001C27.8999 23.7001 28.4999 23.4001 29.0999 23.4001C29.6999 23.4001 30.2999 24.0001 30.2999 24.6001C31.1999 27.9001 32.9999 30.3001 34.4999 31.5001C30.5999 23.4001 31.1999 16.2001 36.2999 10.8001C36.5999 10.2001 37.4999 10.2001 38.0999 10.5001C38.6999 10.8001 38.9999 11.4001 38.9999 12.0001C38.0999 18.6001 39.8999 21.9001 41.9999 23.4001C41.3999 15.6001 41.6999 9.30009 50.3999 4.80009C50.9999 4.50009 51.5999 4.50007 52.1999 5.10007C52.4999 5.70007 52.7999 6.30008 52.4999 6.90008C49.4999 12.0001 51.2999 14.7001 53.3999 18.6001C54.2999 20.4001 55.4999 22.2001 56.0999 24.3001C56.3999 24.0001 56.3999 24.0001 56.6999 23.7001C57.8999 22.2001 59.0999 21.3001 57.8999 15.3001C57.8999 14.7001 58.1999 14.1001 58.7999 13.8001C59.3999 13.5001 59.9999 13.5001 60.5999 14.1001C67.7999 21.6001 71.0999 31.2001 69.2999 40.2001C67.7999 47.4001 64.7999 50.7001 61.7999 53.4001C61.1999 54.0001 60.2999 53.7001 59.6999 53.1001C59.0999 52.5001 59.3999 51.6001 59.9999 51.0001C62.6999 48.9001 65.0999 45.9001 66.2999 39.6001C67.4999 33.0001 65.6999 25.8001 61.4999 19.8001C61.4999 22.8001 60.2999 24.3001 59.0999 25.8001C58.1999 26.7001 57.5999 27.6001 57.2999 29.4001C57.2999 30.0001 57.2999 30.9001 57.2999 31.5001C57.2999 32.4001 56.6999 32.7001 55.7999 32.7001C54.8999 32.7001 54.2999 32.1001 54.2999 31.2001C54.2999 30.3001 54.2999 29.7001 54.2999 29.1001C54.2999 25.2001 52.7999 22.5001 51.2999 19.8001C49.4999 16.8001 47.6999 13.8001 48.5999 9.60007C44.6999 13.2001 44.9999 17.7001 45.5999 24.9001V25.5001C45.5999 26.1001 45.2999 26.4001 44.9999 26.7001C44.6999 27.0001 44.0999 27.0001 43.4999 26.7001C41.3999 25.8001 37.1999 23.4001 36.2999 16.5001C34.1999 22.2001 36.5999 28.2001 39.2999 33.0001C39.5999 33.3001 39.5999 33.9001 39.2999 34.5001C38.9999 35.1001 38.6999 35.1001 38.0999 35.1001C35.0999 35.1001 31.7999 33.0001 29.6999 28.8001C29.3999 31.5001 29.3999 34.8001 30.2999 39.0001C31.4999 44.4001 33.5999 47.1001 35.6999 49.8001L36.2999 50.7001C36.8999 51.3001 36.5999 52.2001 35.9999 52.8001C35.3999 53.7001 35.0999 53.7001 34.7999 53.7001Z" fill="#494949"/>
<path d="M53.6995 48.0003H53.3995C52.4995 47.7003 52.1995 47.1003 52.4995 46.2003C53.3995 43.2003 52.1995 41.4003 49.4995 38.7003C48.5995 37.8003 47.6995 36.9003 47.0995 36.0003C46.4995 35.4003 46.7995 34.5003 47.3995 33.9003C47.9995 33.3003 48.8995 33.6003 49.4995 34.2003C50.0995 35.1003 50.9995 36.0003 51.8995 36.9003C54.5995 39.6003 56.9995 42.3003 55.4995 47.1003C54.8995 47.4003 54.2995 48.0003 53.6995 48.0003Z" fill="#494949"/>
<path d="M47.9996 91.4999C45.5996 91.4999 43.4996 89.9999 42.8996 87.5999L34.1996 59.3999H30.5996C28.1996 59.3999 26.0996 57.2999 26.0996 54.8999C26.0996 52.4999 28.1996 50.3999 30.5996 50.3999H65.3996C67.7996 50.3999 69.8996 52.4999 69.8996 54.8999C69.8996 57.2999 67.7996 59.3999 65.3996 59.3999H61.7996L53.0996 87.5999C52.4996 89.9999 50.3996 91.4999 47.9996 91.4999ZM30.5996 53.6999C29.6996 53.6999 29.0996 54.2999 29.0996 55.1999C29.0996 56.0999 29.6996 56.6999 30.5996 56.6999H35.3996C35.9996 56.6999 36.5996 56.9999 36.8996 57.5999L45.8996 86.6999C46.1996 87.5999 47.0996 88.4999 48.2996 88.4999C49.4996 88.4999 50.3996 87.8999 50.6996 86.6999L59.6996 57.5999C59.9996 56.9999 60.5996 56.6999 61.1996 56.6999H65.9996C66.8996 56.6999 67.4996 56.0999 67.4996 55.1999C67.4996 54.2999 66.8996 53.6999 65.9996 53.6999H30.5996Z" fill="#494949"/>
<path d="M39.2996 59.3999H35.0996C34.1996 59.3999 33.5996 58.7999 33.5996 57.8999C33.5996 56.9999 34.1996 56.3999 35.0996 56.3999H38.9996C39.8996 56.3999 40.4996 56.9999 40.4996 57.8999C40.4996 58.7999 39.8996 59.3999 39.2996 59.3999Z" fill="#494949"/>
<path d="M60.9002 59.3999H50.7002C49.8002 59.3999 49.2002 58.7999 49.2002 57.8999C49.2002 56.9999 49.8002 56.3999 50.7002 56.3999H60.9002C61.8002 56.3999 62.4002 56.9999 62.4002 57.8999C62.4002 58.7999 61.8002 59.3999 60.9002 59.3999Z" fill="#494949"/>
</svg>
