<svg width="96" height="96" viewBox="0 0 96 96" fill="none" xmlns="http://www.w3.org/2000/svg">
<path d="M32.7001 62.6999C28.5001 64.1999 25.2001 66.2999 22.8001 68.6999C22.8001 68.6999 22.5001 68.9999 22.5001 69.2999H22.2001C21.6001 69.2999 21.0001 69.2999 20.4001 69.2999C14.7001 69.2999 10.2001 68.0999 7.80006 67.4999C6.60006 67.1999 6.30006 65.0999 7.20006 63.8999C9.00006 61.7999 11.1001 59.6999 14.4001 58.7999C17.1001 57.8999 15.9001 55.1999 15.9001 52.7999C12.6001 56.0999 11.7001 51.8999 8.10006 53.6999C11.1001 48.5999 10.8001 45.8999 11.4001 41.6999C12.0001 38.6999 13.8001 33.8999 20.1001 33.8999C26.4001 33.8999 28.2001 38.6999 28.8001 41.6999C29.4001 45.8999 29.1001 48.5999 32.1001 53.6999C28.8001 51.8999 27.9001 56.3999 24.3001 52.7999C24.3001 55.1999 23.4001 57.8999 25.8001 58.7999C29.1001 59.3999 31.2001 60.8999 32.7001 62.6999Z" fill="#FFBDD2"/>
<path d="M72.3006 69.3C73.2006 70.8 72.6006 73.5 70.8006 73.8C66.0006 75 57.9006 76.5 47.1006 76.5C36.3006 76.5 28.2006 75 23.7006 73.8C21.9006 73.5 21.3006 70.8 22.2006 69.3C22.2006 69 22.5006 69 22.5006 68.7C24.9006 66.3 28.2006 64.2 32.7006 62.7C33.9006 62.4 35.1006 62.1 36.3006 61.8L38.1006 61.5C39.0006 61.2 39.6006 60.6 39.6006 59.7C39.6006 58.8 39.6006 57.6 39.6006 56.7C39.6006 54 36.6006 51.3 36.6006 47.7C35.7006 45.6 35.1006 43.5 35.1006 42C35.1006 41.1 35.4006 40.2 35.7006 39.9C35.4006 38.7 35.4006 37.2 35.1006 35.7C34.2006 30 36.0006 26.7 40.8006 24.6C41.7006 24.3 41.1006 18.6 42.0006 19.8C44.7006 22.5 52.2006 23.7 54.0006 24.3C59.1006 26.1 60.9006 30.3 60.0006 35.7C59.7006 37.2 59.4006 38.4 59.4006 39.9C59.7006 40.2 60.0006 41.1 60.0006 42C60.0006 43.5 59.4006 45.6 58.5006 47.7C58.2006 51.3 55.5006 54.3 55.5006 56.7C55.5006 57.9 55.5006 58.8 55.5006 59.7C55.5006 60.6 56.1006 61.5 57.0006 61.5L58.5006 61.8C59.1006 61.8 59.7006 62.1 60.3006 62.1C65.7006 63.3 69.9006 65.7 72.6006 68.7C72.3006 69 72.3006 69 72.3006 69.3Z" fill="#CED8EE"/>
<g opacity="0.5">
<g opacity="0.5">
<path opacity="0.5" d="M34.7998 40.7998C34.7998 41.0998 34.7998 41.3998 34.7998 41.9998C34.7998 42.8998 34.7998 43.4998 35.0998 44.6998C35.0998 44.3998 35.3998 44.3998 35.3998 44.3998C35.3998 43.1998 35.0998 41.9998 34.7998 40.7998Z" fill="white"/>
</g>
<g opacity="0.5">
<path opacity="0.5" d="M59.6996 40.7998C59.3996 41.9998 59.3996 42.8998 59.0996 44.0998L59.3996 44.3998C59.6996 43.4998 59.6996 42.5998 59.6996 41.6998C59.6996 41.6998 59.6996 41.0998 59.6996 40.7998Z" fill="white"/>
</g>
</g>
<path d="M89.4 64.2001C90.3 65.1001 90 67.2001 88.8 67.5001C85.8 68.1001 80.1 69.3001 73.2 69.3001C72.9 69.3001 72.9 69.3001 72.6 69.3001C72.6 69.0001 72.3 69.0001 72.3 68.7001C69.6 65.7001 65.4 63.3001 60 62.1001V61.8001C61.8 60.9001 63.6 60.0001 66 59.7001L67.2 59.4001C67.8 59.4001 68.1 58.8001 68.1 58.2001C68.1 57.6001 68.1 57.0001 68.1 56.1001C68.1 54.3001 66 52.5001 66 50.1001C65.4 48.6001 65.1 47.4001 65.1 46.2001C65.1 45.6001 65.4 45.0001 65.7 44.7001C65.4 43.8001 65.4 42.9001 65.1 42.0001C64.5 38.4001 65.7 36.0001 69 34.5001C69.6 34.2001 69.3 30.6001 69.9 31.2001C71.7 33.0001 76.8 33.9001 78 34.2001C81.3 35.4001 82.5 38.1001 81.9 41.7001C81.3 43.2001 81 44.1001 81 45.0001C81.3 45.3001 81.6 45.6001 81.6 46.5001C81.6 47.4001 81.3 48.9001 80.7 50.4001C80.7 52.8001 78.6 54.6001 78.6 56.4001C78.6 57.0001 78.6 57.9001 78.6 58.5001C78.6 59.1001 78.9 59.7001 79.5 59.7001L80.4 60.0001C84.3 60.3001 87.3 62.1001 89.4 64.2001Z" fill="#FFD599"/>
<g opacity="0.5">
<g opacity="0.5">
<path opacity="0.5" d="M64.7998 46.7998C64.7998 47.3998 64.7998 47.6998 65.0998 48.2998C65.0998 47.6998 64.7998 47.3998 64.7998 46.7998Z" fill="white"/>
</g>
<g opacity="0.5">
<path opacity="0.5" d="M81 48.2998C81.3 47.6998 81.3 47.0998 81.3 46.7998C81.3 47.3998 81.3 47.6998 81 48.2998Z" fill="white"/>
</g>
</g>
<path d="M72.8999 70.8002H72.2999C71.3999 70.8002 70.7999 70.2002 70.7999 69.3002C70.7999 68.4002 71.3999 67.8002 72.2999 67.8002H72.8999C79.4999 67.8002 84.8999 66.9002 88.1999 66.0002C88.1999 66.0002 88.1999 66.0002 88.4999 65.7002C88.4999 65.4002 88.4999 65.1002 88.4999 65.1002C86.3999 63.0002 83.6999 61.5002 80.0999 60.9002L79.1999 60.6002C77.9999 60.3002 77.0999 59.4002 77.0999 57.9002C77.0999 57.3002 77.0999 56.7002 77.0999 55.8002C77.0999 54.6002 77.6999 53.7002 78.2999 52.5002C78.8999 51.6002 79.1999 50.7002 79.1999 49.8002C79.1999 49.5002 79.1999 49.5002 79.1999 49.2002C79.7999 48.0002 80.0999 46.8002 80.0999 45.9002C80.0999 45.6002 80.0999 45.6002 80.0999 45.6002C79.7999 45.3002 79.4999 44.7002 79.7999 44.4002L80.3999 41.7002C80.9999 38.7002 80.0999 36.6002 77.3999 35.7002C77.0999 35.7002 76.7999 35.4002 76.1999 35.4002C74.3999 34.8002 72.2999 34.5002 70.7999 33.6002C70.7999 34.5002 70.4999 35.4002 69.5999 35.7002C66.8999 36.9002 65.9999 38.7002 66.5999 41.7002C66.5999 42.3002 66.8999 42.6002 66.8999 43.2002L67.1999 44.4002C67.1999 45.0002 67.1999 45.3002 66.8999 45.6002C66.8999 45.6002 66.8999 45.6002 66.8999 45.9002C66.8999 46.8002 67.1999 48.0002 67.7999 48.9002C67.7999 49.2002 67.7999 49.2002 67.7999 49.5002C67.7999 50.4002 68.3999 51.3002 68.6999 52.2002C69.2999 53.1002 69.8999 54.3002 69.8999 55.5002C69.8999 56.1002 69.8999 57.0002 69.8999 57.6002C69.8999 58.8002 68.9999 60.0002 67.7999 60.3002L65.9999 60.9002C63.8999 61.2002 62.0999 62.1002 60.2999 63.0002C59.6999 63.3002 58.7999 63.3002 58.1999 62.4002C57.8999 61.8002 57.8999 60.9002 58.7999 60.3002C60.5999 59.1002 62.6999 58.5002 65.3999 57.9002L66.2999 57.6002C66.2999 57.0002 66.2999 56.4002 66.2999 55.8002C66.2999 55.2002 65.9999 54.6002 65.3999 54.0002C64.7999 53.1002 64.1999 51.9002 64.1999 50.4002C63.5999 48.9002 62.9999 47.4002 62.9999 46.2002C62.9999 45.6002 62.9999 45.0002 63.2999 44.4002V43.8002C63.2999 43.2002 62.9999 42.9002 62.9999 42.3002C62.3999 38.1002 63.5999 35.4002 67.1999 33.6002C67.1999 33.3002 67.1999 33.0002 67.1999 32.7002C67.1999 31.5002 67.1999 30.3002 68.3999 30.0002C68.9999 29.7002 69.5999 30.0002 70.1999 30.3002C71.3999 31.5002 74.3999 32.1002 76.1999 32.7002C76.7999 33.0002 77.3999 33.0002 77.6999 33.0002C81.5999 34.5002 83.3999 37.8002 82.4999 42.3002L82.1999 44.4002C82.4999 45.0002 82.4999 45.6002 82.4999 46.2002C82.4999 47.7002 81.8999 49.2002 81.2999 50.4002C81.2999 51.9002 80.3999 53.1002 80.0999 54.0002C79.7999 54.6002 79.1999 55.5002 79.1999 55.8002C79.1999 56.4002 79.1999 57.0002 79.1999 57.6002L80.0999 57.9002C84.2999 58.5002 87.5999 60.3002 89.9999 63.0002C90.8999 63.9002 91.1999 65.1002 90.8999 66.6002C90.5999 67.8002 89.6999 68.7002 88.7999 69.0002C85.4999 69.9002 80.0999 70.8002 72.8999 70.8002Z" fill="#494949"/>
<path d="M20.4001 70.8002C14.4001 70.8002 9.90013 69.6002 7.20013 68.7002C6.30013 68.4002 5.70013 67.8002 5.40013 66.6002C5.10013 65.4002 5.10013 63.9002 6.00013 63.0002C8.10013 60.3002 10.8001 58.5002 14.1001 57.6002C14.7001 57.3002 15.0001 57.0002 14.7001 55.5002C13.2001 56.1002 12.0001 55.5002 11.1001 55.2002C10.2001 54.9002 9.60013 54.6002 8.70013 55.2002C8.10013 55.5002 7.50013 55.5002 6.90013 54.9002C6.60013 54.3002 6.30013 53.7002 6.90013 53.1002C9.30013 49.5002 9.30013 47.4002 9.60013 44.4002C9.60013 43.5002 9.90013 42.6002 9.90013 41.7002C10.2001 39.6002 12.0001 32.7002 19.8001 32.7002C27.6001 32.7002 29.4001 39.6002 29.7001 41.7002C30.0001 42.6002 30.0001 43.5002 30.0001 44.4002C30.3001 47.1002 30.6001 49.5002 32.7001 53.1002C33.0001 53.7002 33.0001 54.3002 32.4001 54.9002C32.1001 55.5002 31.2001 55.5002 30.6001 55.2002C29.7001 54.6002 29.1001 54.9002 28.2001 55.2002C27.3001 55.5002 26.1001 56.1002 24.6001 55.5002C24.6001 57.0002 24.6001 57.3002 25.5001 57.6002C28.2001 58.2002 30.6001 59.7002 32.7001 61.8002C33.3001 62.4002 33.3001 63.3002 32.7001 63.9002C32.1001 64.5002 31.2001 64.5002 30.6001 63.9002C29.1001 62.1002 27.3001 60.9002 24.9001 60.6002C21.6001 59.4002 21.9001 56.7002 22.2001 54.9002C22.2001 54.3002 22.2001 54.0002 22.2001 53.4002C22.2001 52.8002 22.5001 52.2002 23.1001 52.2002C23.7001 51.9002 24.3001 52.2002 24.6001 52.5002C25.8001 53.7002 26.1001 53.4002 27.3001 53.1002C27.6001 52.8002 28.2001 52.8002 28.8001 52.5002C27.6001 49.8002 27.3001 47.4002 27.0001 45.0002C27.0001 44.1002 26.7001 43.2002 26.7001 42.3002C26.4001 40.2002 24.9001 35.7002 19.5001 35.7002C14.1001 35.7002 12.6001 40.2002 12.3001 42.3002C12.0001 43.2002 12.0001 44.1002 12.0001 45.0002C11.7001 47.4002 11.4001 49.5002 10.2001 52.5002C10.8001 52.5002 11.4001 52.8002 11.7001 53.1002C12.9001 53.7002 13.2001 53.7002 14.4001 52.5002C14.7001 52.2002 15.3001 51.9002 15.9001 52.2002C16.5001 52.5002 16.8001 52.8002 16.8001 53.4002C16.8001 54.0002 16.8001 54.3002 16.8001 54.9002C17.1001 56.7002 17.1001 59.7002 14.1001 60.6002C11.4001 61.5002 9.30013 62.7002 7.50013 65.1002C7.20013 65.4002 7.20013 66.3002 7.50013 66.6002C9.90013 67.5002 14.1001 68.4002 19.5001 68.4002C20.1001 68.4002 20.7001 68.4002 21.3001 68.4002C22.2001 68.4002 22.8001 69.0002 22.8001 69.9002C22.8001 70.8002 22.2001 71.4002 21.3001 71.4002C21.6001 70.8002 21.0001 70.8002 20.4001 70.8002Z" fill="#494949"/>
<path d="M47.1003 78C36.3003 78 28.2003 76.5 23.1003 75.3C21.9003 75 21.0003 74.1 20.4003 72.9C19.8003 71.4 20.1003 69.9 20.7003 68.7C21.0003 68.4 21.0003 68.1 21.3003 68.1C24.0003 65.4 27.6003 63.3 32.1003 61.8C33.3003 61.5 34.5003 61.2 36.0003 60.9L37.8003 60.6C38.1003 60.6 38.1003 60.3 38.1003 60.3C38.1003 59.4 38.1003 58.2 38.1003 57C38.1003 56.1 37.5003 54.9 36.9003 53.7C36.0003 52.2 35.1003 50.4 35.1003 48.3C34.2003 46.2 33.6003 44.1 33.6003 42.3C33.6003 41.4 33.9003 40.5 34.2003 39.9L33.9003 38.7C33.9003 37.8 33.6003 37.2 33.6003 36.3C32.4003 30.3 34.5003 26.1 39.9003 23.7C39.9003 23.4 39.9003 22.5 39.9003 21.9C39.9003 20.1 40.2003 18.9 41.1003 18.3C41.7003 18 42.6003 18.3 42.9003 18.6C44.7003 20.4 49.5003 21.6 52.2003 22.2C53.1003 22.5 54.0003 22.8 54.3003 22.8C60.0003 24.9 62.4003 29.4 61.2003 36C61.2003 36.6 60.9003 37.2 60.9003 38.1C60.9003 38.7 60.6003 39 60.6003 39.6C60.9003 40.2 61.2003 41.1 61.2003 42C61.2003 43.8 60.6003 45.9 59.7003 48C59.4003 50.1 58.5003 51.9 57.9003 53.4C57.3003 54.6 56.7003 55.8 56.7003 56.7C56.7003 57.9 56.7003 58.8 56.7003 60C56.7003 60.3 56.7003 60.3 57.0003 60.3L58.5003 60.6C59.1003 60.6 59.7003 60.9 60.3003 60.9C65.7003 62.1 69.9003 64.5 73.2003 67.8C73.5003 68.1 73.8003 68.4 73.8003 68.7C74.4003 69.9 74.7003 71.7 74.1003 72.9C73.5003 74.1 72.6003 75 71.4003 75.3C66.0003 76.5 57.6003 78 47.1003 78ZM42.6003 21.9C42.6003 23.7 42.3003 25.2 41.1003 25.8C36.6003 27.9 35.1003 30.6 36.0003 35.4C36.0003 36.3 36.3003 36.9 36.3003 37.8L36.6003 39.6C36.6003 40.2 36.6003 40.5 36.3003 40.8C36.0003 41.1 36.0003 41.4 36.0003 42C36.0003 43.2 36.6003 45.3 37.5003 47.1C37.5003 47.4 37.5003 47.4 37.5003 47.7C37.5003 49.2 38.4003 50.7 39.0003 52.2C39.9003 53.7 40.5003 55.2 40.5003 56.7C40.5003 57.9 40.5003 58.8 40.5003 59.7C40.5003 61.2 39.3003 62.7 37.8003 63L36.3003 63.3C35.1003 63.6 33.9003 63.9 32.7003 64.2C28.8003 65.4 25.8003 67.2 23.1003 69.9C23.1003 69.9 23.1003 70.2 22.8003 70.2C22.5003 70.5 22.5003 71.4 22.8003 72C22.8003 72.3 23.1003 72.6 23.4003 72.6C28.2003 73.8 36.0003 75.3 46.5003 75.3C56.7003 75.3 64.8003 73.8 69.9003 72.6C70.2003 72.6 70.5003 72 70.5003 72C70.8003 71.4 70.8003 70.8 70.5003 70.2C70.5003 70.2 70.5003 69.9 70.2003 69.9C67.2003 66.9 63.3003 64.8 58.5003 63.6C57.9003 63.6 57.6003 63.3 57.0003 63.3L56.1003 63C54.6003 62.7 53.4003 61.2 53.4003 59.7C53.4003 58.8 53.4003 57.6 53.4003 56.7C53.4003 55.2 54.0003 53.7 54.9003 52.2C55.8003 50.7 56.4003 49.2 56.4003 47.7C56.4003 47.4 56.4003 47.4 56.4003 47.1C57.3003 45.3 57.9003 43.5 57.9003 42C57.9003 41.4 57.9003 41.1 57.6003 40.8C57.3003 40.5 57.0003 39.9 57.3003 39.6C57.3003 39 57.6003 38.1 57.6003 37.5C57.6003 36.9 57.9003 36.3 57.9003 35.4C58.8003 30.3 57.0003 27 52.8003 25.5C52.5003 25.5 51.6003 25.2 50.7003 24.9C48.9003 24.3 45.3003 23.4 42.6003 21.9Z" fill="#494949"/>
</svg>
