<svg width="34" height="24" viewBox="0 0 34 24" fill="none" xmlns="http://www.w3.org/2000/svg">
<path opacity="0.6" d="M12 12C12 14.9 13.2 17.5 15.2 19.3C14.2 19.7 13.1 20 12 20C7.6 20 4 16.4 4 12C4 7.6 7.6 4 12 4C13.1 4 14.2 4.2 15.2 4.7C13.2 6.5 12 9.1 12 12Z" fill="#C9CAC9"/>
<path d="M20 11.9998C20 14.4998 18.8 16.7998 17 18.1998C15.2 16.6998 14 14.4998 14 11.9998C14 9.4998 15.2 7.1998 17 5.7998C18.8 7.1998 20 9.4998 20 11.9998Z" fill="white"/>
<path d="M22 2C20.2 2 18.5 2.5 17 3.3C15.5 2.5 13.8 2 12 2C6.5 2 2 6.5 2 12C2 17.5 6.5 22 12 22C13.8 22 15.5 21.5 17 20.7C18.5 21.5 20.2 22 22 22C27.5 22 32 17.5 32 12C32 6.5 27.5 2 22 2ZM12 20C7.6 20 4 16.4 4 12C4 7.6 7.6 4 12 4C13.1 4 14.2 4.2 15.2 4.7C13.2 6.5 12 9.1 12 12C12 14.9 13.2 17.5 15.2 19.3C14.2 19.8 13.1 20 12 20ZM14 12C14 9.5 15.2 7.2 17 5.8C18.8 7.3 20 9.5 20 12C20 14.5 18.8 16.8 17 18.2C15.2 16.8 14 14.5 14 12ZM22 20C20.9 20 19.8 19.8 18.8 19.3C20.8 17.5 22 14.9 22 12C22 9.1 20.8 6.5 18.8 4.7C19.8 4.2 20.9 4 22 4C26.4 4 30 7.6 30 12C30 16.4 26.4 20 22 20Z" fill="#090A09"/>
<path d="M29.9998 12C29.9998 16.4 26.3998 20 21.9998 20C20.8998 20 19.7998 19.8 18.7998 19.3C20.7998 17.5 21.9998 14.9 21.9998 12C21.9998 9.1 20.7998 6.5 18.7998 4.7C19.7998 4.2 20.8998 4 21.9998 4C26.3998 4 29.9998 7.6 29.9998 12Z" fill="white"/>
</svg>
